<svg class="MuiSvgIcon-root jss199" focusable="false" viewBox="0 0 28 28" aria-hidden="true" role="img">
    <path fill-rule="evenodd" clip-rule="evenodd"
        d="M20.7515 2.78678C20.6395 2.388 20.2254 2.15551 19.8266 2.26751C19.4278 2.37951 19.1954 2.79358 19.3074 3.19236L19.3417 3.3145C19.5086 3.90911 19.1223 4.51701 18.513 4.61827C18.2011 4.67012 17.8263 4.56685 17.4328 4.31346C16.4132 3.65691 15.1036 3.25958 13.8856 3.25958C12.5206 3.25958 10.7681 3.83545 9.46733 4.9343C8.05105 6.13071 7.06694 8.43577 7.06695 11.0078C7.06697 15.2453 5.78352 17.5224 4.77065 18.752C4.4161 19.1823 4.25171 19.7587 4.40282 20.2946C4.56993 20.8873 5.08823 21.2895 5.76214 21.2988C5.84442 21.2999 5.93147 21.3005 6.0237 21.3005H6.04052H6.05736H6.07422H6.0911H6.108H6.12491H6.14185H6.1588H6.17577H6.19276H6.20976H6.22678H6.24382H6.26088H6.27796H6.29505H6.31216H6.32928H6.34643H6.36359H6.38076H6.39795H6.41516H6.43239H6.44963H6.46688H6.48415H6.50144H6.51874H6.53606H6.55339H6.57074H6.5881H6.60548H6.62287H6.64028H6.6577H6.67513H6.69258H6.71004H6.72752H6.745H6.76251H6.78002H6.79755H6.8151H6.83265H6.85022H6.8678H6.88539H6.903H6.92061H6.93824H6.95588H6.97354H6.9912H7.00888H7.02657H7.04427H7.06198H7.0797H7.09743H7.11517H7.13292H7.15069H7.16846H7.18625H7.20404H7.22184H7.23966H7.25748H7.27531H7.29316H7.31101H7.32887H7.34674H7.36462H7.3825H7.4004H7.4183H7.43621H7.45413H7.47206H7.49H7.50794H7.52589H7.54385H7.56182H7.57979H7.59777H7.61576H7.63375H7.65175H7.66976H7.68777H7.70579H7.72382H7.74185H7.75989H7.77793H7.79598H7.81403H7.83209H7.85016H7.86822H7.8863H7.90438H7.92246H7.94055H7.95864H7.97674H7.99484H8.01294H8.03105H8.04916H8.06727H8.08539H8.10351H8.12164H8.13977H8.1579H8.17603H8.19417H8.2123H8.23044H8.24859H8.26673H8.28488H8.30302H8.32117H8.33933H8.35748H8.37563H8.39379H8.41194H8.4301H8.44825H8.46641H8.48457H8.50273H8.52088H8.53904H8.5572H8.57536H8.59351H8.61167H8.62982H8.64798H8.66613H8.68428H8.70244H8.72058H8.73873H8.75688H8.77502H8.79317H8.81131H8.82944H8.84758H8.86571H8.88384H8.90197H8.9201H8.93822H8.95634H8.97445H8.99256H9.01067H9.02878H9.04688H9.06497H9.08307H9.10116H9.11924H9.13732H9.15539H9.17346H9.19153H9.20959H9.22764H9.24569H9.26373H9.28177H9.2998H9.31783H9.33585H9.35386H9.37187H9.38987H9.40787H9.42586H9.44384H9.46181H9.4712C9.85085 23.2564 11.7062 24.6666 13.8253 24.6666C15.9445 24.6666 17.7998 23.2564 18.1795 21.3005H18.1838H18.2018H18.2197H18.2376H18.2556H18.2735H18.2915H18.3095H18.3274H18.3454H18.3634H18.3814H18.3994H18.4174H18.4354H18.4534H18.4715H18.4895H18.5075H18.5256H18.5436H18.5617H18.5797H18.5978H18.6159H18.6339H18.652H18.6701H18.6882H18.7063H18.7244H18.7425H18.7606H18.7787H18.7968H18.8149H18.833H18.8512H18.8693H18.8874H18.9056H18.9237H18.9418H18.96H18.9781H18.9962H19.0144H19.0325H19.0507H19.0688H19.087H19.1051H19.1233H19.1414H19.1596H19.1778H19.1959H19.2141H19.2322H19.2504H19.2685H19.2867H19.3049H19.323H19.3412H19.3593H19.3775H19.3956H19.4138H19.4319H19.4501H19.4682H19.4864H19.5045H19.5227H19.5408H19.559H19.5771H19.5952H19.6134H19.6315H19.6496H19.6678H19.6859H19.704H19.7221H19.7402H19.7583H19.7764H19.7945H19.8126H19.8307H19.8488H19.8669H19.885H19.903H19.9211H19.9392H19.9572H19.9753H19.9933H20.0114H20.0294H20.0474H20.0655H20.0835H20.1015H20.1195H20.1375H20.1555H20.1735H20.1915H20.2094H20.2274H20.2454H20.2633H20.2813H20.2992H20.3171H20.3351H20.353H20.3709H20.3888H20.4066H20.4245H20.4424H20.4603H20.4781H20.496H20.5138H20.5316H20.5494H20.5672H20.585H20.6028H20.6206H20.6383H20.6561H20.6738H20.6916H20.7093H20.727H20.7447H20.7624H20.7801H20.7977H20.8154H20.833H20.8507H20.8683H20.8859H20.9035H20.921H20.9386H20.9562H20.9737H20.9912H21.0088H21.0263H21.0437H21.0612H21.0787H21.0961H21.1136H21.131H21.1484H21.1658H21.1832H21.2005H21.2179H21.2352H21.2525H21.2698H21.2871H21.3044H21.3216H21.3389H21.3561H21.3733H21.3905H21.4077H21.4248H21.442H21.4591H21.4762H21.4933H21.5104H21.5274H21.5445H21.5615H21.5785H21.5955H21.6125H21.6294H21.6464H21.6633H21.6802H21.697H21.7139H21.7307H21.7476C21.8826 21.3005 22.0079 21.2992 22.1244 21.2968C22.7898 21.283 23.3104 20.8882 23.4777 20.2937C23.6295 19.7544 23.4574 19.1788 23.0956 18.7529C22.0493 17.5215 20.7043 15.2453 20.7043 11.0078C20.7043 10.2668 20.6232 9.58583 20.4731 8.9624C20.3761 8.55969 19.9711 8.31182 19.5684 8.40876C19.1657 8.5057 18.9178 8.91075 19.0147 9.31346C19.1353 9.81419 19.2043 10.3768 19.2043 11.0077C19.2043 15.6111 20.6824 18.2293 21.9524 19.7241C21.9751 19.7508 21.9917 19.7761 22.0037 19.7987C21.9239 19.7999 21.8387 19.8005 21.7476 19.8005H21.7307H21.7139H21.697H21.6802H21.6633H21.6464H21.6294H21.6125H21.5955H21.5785H21.5615H21.5445H21.5274H21.5104H21.4933H21.4762H21.4591H21.442H21.4248H21.4077H21.3905H21.3733H21.3561H21.3389H21.3216H21.3044H21.2871H21.2698H21.2525H21.2352H21.2179H21.2005H21.1832H21.1658H21.1484H21.131H21.1136H21.0961H21.0787H21.0612H21.0437H21.0263H21.0088H20.9912H20.9737H20.9562H20.9386H20.921H20.9035H20.8859H20.8683H20.8507H20.833H20.8154H20.7977H20.7801H20.7624H20.7447H20.727H20.7093H20.6916H20.6738H20.6561H20.6383H20.6206H20.6028H20.585H20.5672H20.5494H20.5316H20.5138H20.496H20.4781H20.4603H20.4424H20.4245H20.4066H20.3888H20.3709H20.353H20.3351H20.3171H20.2992H20.2813H20.2633H20.2454H20.2274H20.2094H20.1915H20.1735H20.1555H20.1375H20.1195H20.1015H20.0835H20.0655H20.0474H20.0294H20.0114H19.9933H19.9753H19.9572H19.9392H19.9211H19.903H19.885H19.8669H19.8488H19.8307H19.8126H19.7945H19.7764H19.7583H19.7402H19.7221H19.704H19.6859H19.6678H19.6496H19.6315H19.6134H19.5952H19.5771H19.559H19.5408H19.5227H19.5045H19.4864H19.4682H19.4501H19.4319H19.4138H19.3956H19.3775H19.3593H19.3412H19.323H19.3049H19.2867H19.2685H19.2504H19.2322H19.2141H19.1959H19.1778H19.1596H19.1414H19.1233H19.1051H19.087H19.0688H19.0507H19.0325H19.0144H18.9962H18.9781H18.96H18.9418H18.9237H18.9056H18.8874H18.8693H18.8512H18.833H18.8149H18.7968H18.7787H18.7606H18.7425H18.7244H18.7063H18.6882H18.6701H18.652H18.6339H18.6159H18.5978H18.5797H18.5617H18.5436H18.5256H18.5075H18.4895H18.4715H18.4534H18.4354H18.4174H18.3994H18.3814H18.3634H18.3454H18.3274H18.3095H18.2915H18.2735H18.2556H18.2376H18.2197H18.2018H18.1838H18.1659H18.148H18.1301H18.1122H18.0944H18.0765H18.0586H18.0408H18.0229H18.0051H17.9873H17.9695H17.9517H17.9339H17.9161H17.8983H17.8805H17.8628H17.845H17.8273H17.8096H17.7919H17.7742H17.7565H17.7388H17.7211H17.7035H17.6858H17.6682H17.6506H17.633H17.6154H17.5978H17.5802H17.5627H17.5451H17.5276H17.5101H17.4926H17.4751H17.4576H17.4402H17.4227H17.4053H17.3879H17.3704H17.3531H17.3357H17.3183H17.301H17.2836H17.2663H17.249H17.2317H17.2144H17.1972H17.1799H17.1627H17.1455H17.1283H17.1111H17.094H17.0768H17.0597H17.0426H17.0255H17.0084H16.9914H16.9743H16.9573H16.9403H16.9233H16.9063H16.8894H16.8724H16.8555H16.8386H16.8217H16.8049H16.788H16.7712H16.7544H16.7376H16.7209H16.7041H16.6874H16.6707H16.654H16.6373H16.6207H16.6041H16.5875H16.5709H16.5543H16.5378H16.5212H16.5047H16.4883H16.4718H16.4554H16.439H16.4226H16.4062H16.3898H16.3735H16.3572H16.3409H16.3247H16.3084H16.2922H16.276H16.2599H16.2437H16.2276H16.2115H16.1954H16.1794H16.1634H16.1474H16.1314H16.1154H16.0995H16.0836H16.0677H16.0519H16.0361H16.0203H16.0045H15.9887H15.973H15.9573H15.9416H15.926H15.9104H15.8948H15.8792H15.8637H15.8481H15.8327H15.8172H15.8018H15.7864H15.771H15.7556H15.7403H15.725H15.7097H15.6945H15.6793H15.6641H15.6489H15.6338H15.6187H15.6037H15.5886H15.5736H15.5586H15.5437H15.5288H15.5139H15.499H15.4842H15.4694H15.4546H15.4399H15.4252H15.4105H15.3958H15.3812H15.3666H15.3521H15.3375H15.3231H15.3086H15.2942H15.2798H15.2654H15.2511H15.2368H15.2225H15.2083H15.1941H15.1799H15.1658H15.1517H15.1376H15.1236H15.1096H15.0956H15.0816H15.0677H15.0539H15.04H15.0263H15.0125H14.9988H14.9851H14.9714H14.9578H14.9442H14.9306H14.9171H14.9036H14.8902H14.8768H14.8634H14.8501H14.8368H14.8235H14.8103H14.7971H14.7839H14.7708H14.7577H14.7447H14.7317H14.7187H14.7058H14.6929H14.68H14.6672H14.6544H14.6417H14.629H14.6163H14.6037H14.5911H14.5786H14.5661H14.5536H14.5412H14.5288H14.5164H14.5041H14.4918H14.4796H14.4674H14.4553H14.4432H14.4311H14.4191H14.4071H14.3951H14.3832H14.3714H14.3595H14.3478H14.336H14.3243H14.3127H14.3011H14.2895H14.278H14.2665H14.255H14.2436H14.2323H14.221H14.2097H14.1985H14.1873H14.1762H14.1651H14.154H14.143H14.132H14.1211H14.1102H14.0994H14.0934H14.0886H14.0846H14.0779H14.0757H14.0669H14.0566H14.0489H14.0459H14.0399H14.0354H14.0308H14.0249H14.0217H14.0144H14.0125H14.0033H13.9936H13.9833H13.9753H13.973H13.9659H13.9628H13.9564H13.9526H13.9469H13.9424H13.9373H13.9323H13.9277H13.9223H13.918H13.9123H13.9083H13.9023H13.8985H13.8924H13.8887H13.8826H13.8788H13.8727H13.8689H13.863H13.859H13.8533H13.849H13.8436H13.8389H13.834H13.8288H13.8244H13.8187H13.8149H13.8085H13.8054H13.7983H13.796H13.7866H13.7773H13.7673H13.7587H13.7569H13.7496H13.7464H13.7404H13.7359H13.7314H13.7253H13.7223H13.7133H13.7041H13.6955H13.6934H13.6867H13.6826H13.6779H13.6718H13.661H13.6501H13.6392H13.6283H13.6173H13.6062H13.5951H13.584H13.5728H13.5616H13.5503H13.539H13.5276H13.5162H13.5048H13.4933H13.4818H13.4702H13.4586H13.4469H13.4352H13.4235H13.4117H13.3999H13.388H13.3761H13.3642H13.3522H13.3402H13.3281H13.316H13.3038H13.2917H13.2794H13.2672H13.2548H13.2425H13.2301H13.2177H13.2052H13.1927H13.1802H13.1676H13.1549H13.1423H13.1296H13.1168H13.1041H13.0912H13.0784H13.0655H13.0526H13.0396H13.0266H13.0135H13.0005H12.9873H12.9742H12.961H12.9478H12.9345H12.9212H12.9079H12.8945H12.8811H12.8676H12.8541H12.8406H12.8271H12.8135H12.7999H12.7862H12.7725H12.7588H12.745H12.7312H12.7174H12.7035H12.6896H12.6757H12.6617H12.6477H12.6337H12.6196H12.6055H12.5914H12.5772H12.563H12.5488H12.5345H12.5202H12.5059H12.4915H12.4771H12.4627H12.4482H12.4337H12.4192H12.4046H12.3901H12.3754H12.3608H12.3461H12.3314H12.3167H12.3019H12.2871H12.2723H12.2574H12.2425H12.2276H12.2126H12.1977H12.1826H12.1676H12.1525H12.1374H12.1223H12.1072H12.092H12.0768H12.0615H12.0463H12.031H12.0156H12.0003H11.9849H11.9695H11.9541H11.9386H11.9231H11.9076H11.8921H11.8765H11.8609H11.8453H11.8296H11.814H11.7983H11.7825H11.7668H11.751H11.7352H11.7194H11.7035H11.6877H11.6718H11.6558H11.6399H11.6239H11.6079H11.5919H11.5758H11.5598H11.5437H11.5275H11.5114H11.4952H11.479H11.4628H11.4466H11.4303H11.4141H11.3977H11.3814H11.3651H11.3487H11.3323H11.3159H11.2995H11.283H11.2665H11.25H11.2335H11.217H11.2004H11.1838H11.1672H11.1506H11.1339H11.1173H11.1006H11.0839H11.0671H11.0504H11.0336H11.0168H11H10.9832H10.9664H10.9495H10.9326H10.9157H10.8988H10.8819H10.8649H10.848H10.831H10.814H10.7969H10.7799H10.7628H10.7458H10.7287H10.7116H10.6944H10.6773H10.6601H10.6429H10.6258H10.6085H10.5913H10.5741H10.5568H10.5395H10.5223H10.505H10.4876H10.4703H10.453H10.4356H10.4182H10.4008H10.3834H10.366H10.3486H10.3311H10.3136H10.2962H10.2787H10.2612H10.2436H10.2261H10.2086H10.191H10.1735H10.1559H10.1383H10.1207H10.1031H10.0854H10.0678H10.0501H10.0325H10.0148H9.99709H9.97939H9.96168H9.94396H9.92622H9.90848H9.89073H9.87296H9.85519H9.8374H9.8196H9.8018H9.78399H9.76616H9.74833H9.73048H9.71263H9.69477H9.6769H9.65902H9.64113H9.62324H9.60533H9.58742H9.5695H9.55157H9.53363H9.51569H9.49774H9.47978H9.46181H9.44384H9.42586H9.40787H9.38987H9.37187H9.35386H9.33585H9.31783H9.2998H9.28177H9.26373H9.24569H9.22764H9.20959H9.19153H9.17346H9.15539H9.13732H9.11924H9.10116H9.08307H9.06497H9.04688H9.02878H9.01067H8.99256H8.97445H8.95634H8.93822H8.9201H8.90197H8.88384H8.86571H8.84758H8.82944H8.81131H8.79317H8.77502H8.75688H8.73873H8.72058H8.70244H8.68428H8.66613H8.64798H8.62982H8.61167H8.59351H8.57536H8.5572H8.53904H8.52088H8.50273H8.48457H8.46641H8.44825H8.4301H8.41194H8.39379H8.37563H8.35748H8.33933H8.32117H8.30302H8.28488H8.26673H8.24859H8.23044H8.2123H8.19417H8.17603H8.1579H8.13977H8.12164H8.10351H8.08539H8.06727H8.04916H8.03105H8.01294H7.99484H7.97674H7.95864H7.94055H7.92246H7.90438H7.8863H7.86822H7.85016H7.83209H7.81403H7.79598H7.77793H7.75989H7.74185H7.72382H7.70579H7.68777H7.66976H7.65175H7.63375H7.61576H7.59777H7.57979H7.56182H7.54385H7.52589H7.50794H7.49H7.47206H7.45413H7.43621H7.4183H7.4004H7.3825H7.36462H7.34674H7.32887H7.31101H7.29316H7.27531H7.25748H7.23966H7.22184H7.20404H7.18625H7.16846H7.15069H7.13292H7.11517H7.09743H7.0797H7.06198H7.04427H7.02657H7.00888H6.9912H6.97354H6.95588H6.93824H6.92061H6.903H6.88539H6.8678H6.85022H6.83265H6.8151H6.79755H6.78002H6.76251H6.745H6.72752H6.71004H6.69258H6.67513H6.6577H6.64028H6.62287H6.60548H6.5881H6.57074H6.55339H6.53606H6.51874H6.50144H6.48415H6.46688H6.44963H6.43239H6.41516H6.39795H6.38076H6.36359H6.34643H6.32928H6.31216H6.29505H6.27796H6.26088H6.24382H6.22678H6.20976H6.19276H6.17577H6.1588H6.14185H6.12491H6.108H6.0911H6.07422H6.05736H6.04052H6.0237C5.96984 19.8005 5.91831 19.8002 5.869 19.7998C5.88155 19.7717 5.90052 19.7395 5.92841 19.7057L5.35216 19.231L5.92841 19.7057C7.16449 18.2052 8.56697 15.5902 8.56695 11.0077C8.56695 8.7602 9.43673 6.92373 10.4353 6.08017C11.4638 5.21135 12.8729 4.75958 13.8856 4.75958C14.8067 4.75958 15.8357 5.06912 16.6206 5.57459C17.1881 5.94002 17.9434 6.23352 18.759 6.09797C20.2492 5.85029 21.1943 4.36335 20.7858 2.90892L20.7515 2.78678ZM16.628 21.3005H16.6207H16.6041H16.5875H16.5709H16.5543H16.5378H16.5212H16.5047H16.4883H16.4718H16.4554H16.439H16.4226H16.4062H16.3898H16.3735H16.3572H16.3409H16.3247H16.3084H16.2922H16.276H16.2599H16.2437H16.2276H16.2115H16.1954H16.1794H16.1634H16.1474H16.1314H16.1154H16.0995H16.0836H16.0677H16.0519H16.0361H16.0203H16.0045H15.9887H15.973H15.9573H15.9416H15.926H15.9104H15.8948H15.8792H15.8637H15.8481H15.8327H15.8172H15.8018H15.7864H15.771H15.7556H15.7403H15.725H15.7097H15.6945H15.6793H15.6641H15.6489H15.6338H15.6187H15.6037H15.5886H15.5736H15.5586H15.5437H15.5288H15.5139H15.499H15.4842H15.4694H15.4546H15.4399H15.4252H15.4105H15.3958H15.3812H15.3666H15.3521H15.3375H15.3231H15.3086H15.2942H15.2798H15.2654H15.2511H15.2368H15.2225H15.2083H15.1941H15.1799H15.1658H15.1517H15.1376H15.1236H15.1096H15.0956H15.0816H15.0677H15.0539H15.04H15.0263H15.0125H14.9988H14.9851H14.9714H14.9578H14.9442H14.9306H14.9171H14.9036H14.8902H14.8768H14.8634H14.8501H14.8368H14.8235H14.8103H14.7971H14.7839H14.7708H14.7577H14.7447H14.7317H14.7187H14.7058H14.6929H14.68H14.6672H14.6544H14.6417H14.629H14.6163H14.6037H14.5911H14.5786H14.5661H14.5536H14.5412H14.5288H14.5164H14.5041H14.4918H14.4796H14.4674H14.4553H14.4432H14.4311H14.4191H14.4071H14.3951H14.3832H14.3714H14.3595H14.3478H14.336H14.3243H14.3127H14.3011H14.2895H14.278H14.2665H14.255H14.2436H14.2323H14.221H14.2097H14.1985H14.1873H14.1762H14.1651H14.154H14.143H14.132H14.1211H14.1102H14.0994H14.0934H14.0886H14.0846H14.0779H14.0757H14.0669H14.0566H14.0489H14.0459H14.0399H14.0354H14.0308H14.0249H14.0217H14.0144H14.0125H14.0033H13.9936H13.9833H13.9753H13.973H13.9659H13.9628H13.9564H13.9526H13.9469H13.9424H13.9373H13.9323H13.9277H13.9223H13.918H13.9123H13.9083H13.9023H13.8985H13.8924H13.8887H13.8826H13.8788H13.8727H13.8689H13.863H13.859H13.8533H13.849H13.8436H13.8389H13.834H13.8288H13.8244H13.8187H13.8149H13.8085H13.8054H13.7983H13.796H13.7866H13.7773H13.7673H13.7587H13.7569H13.7496H13.7464H13.7404H13.7359H13.7314H13.7253H13.7223H13.7133H13.7041H13.6955H13.6934H13.6867H13.6826H13.6779H13.6718H13.661H13.6501H13.6392H13.6283H13.6173H13.6062H13.5951H13.584H13.5728H13.5616H13.5503H13.539H13.5276H13.5162H13.5048H13.4933H13.4818H13.4702H13.4586H13.4469H13.4352H13.4235H13.4117H13.3999H13.388H13.3761H13.3642H13.3522H13.3402H13.3281H13.316H13.3038H13.2917H13.2794H13.2672H13.2548H13.2425H13.2301H13.2177H13.2052H13.1927H13.1802H13.1676H13.1549H13.1423H13.1296H13.1168H13.1041H13.0912H13.0784H13.0655H13.0526H13.0396H13.0266H13.0135H13.0005H12.9873H12.9742H12.961H12.9478H12.9345H12.9212H12.9079H12.8945H12.8811H12.8676H12.8541H12.8406H12.8271H12.8135H12.7999H12.7862H12.7725H12.7588H12.745H12.7312H12.7174H12.7035H12.6896H12.6757H12.6617H12.6477H12.6337H12.6196H12.6055H12.5914H12.5772H12.563H12.5488H12.5345H12.5202H12.5059H12.4915H12.4771H12.4627H12.4482H12.4337H12.4192H12.4046H12.3901H12.3754H12.3608H12.3461H12.3314H12.3167H12.3019H12.2871H12.2723H12.2574H12.2425H12.2276H12.2126H12.1977H12.1826H12.1676H12.1525H12.1374H12.1223H12.1072H12.092H12.0768H12.0615H12.0463H12.031H12.0156H12.0003H11.9849H11.9695H11.9541H11.9386H11.9231H11.9076H11.8921H11.8765H11.8609H11.8453H11.8296H11.814H11.7983H11.7825H11.7668H11.751H11.7352H11.7194H11.7035H11.6877H11.6718H11.6558H11.6399H11.6239H11.6079H11.5919H11.5758H11.5598H11.5437H11.5275H11.5114H11.4952H11.479H11.4628H11.4466H11.4303H11.4141H11.3977H11.3814H11.3651H11.3487H11.3323H11.3159H11.2995H11.283H11.2665H11.25H11.2335H11.217H11.2004H11.1838H11.1672H11.1506H11.1339H11.1173H11.1006H11.0839H11.0671H11.0504H11.0336H11.0226C11.375 22.3492 12.4552 23.1666 13.8253 23.1666C15.1955 23.1666 16.2757 22.3492 16.628 21.3005Z">
    </path>
</svg>