<svg class="jss226" xmlns="http://www.w3.org/2000/svg" viewBox="0 0 83 24">
    <path class="jss227" fill-rule="evenodd" clip-rule="evenodd"
        d="M2.54118 6.7915C2.54118 6.44633 2.821 6.1665 3.16618 6.1665H16.8486C17.1938 6.1665 17.4736 6.44633 17.4736 6.7915C17.4736 7.13668 17.1938 7.4165 16.8486 7.4165H3.16618C2.821 7.4165 2.54118 7.13668 2.54118 6.7915ZM2.54118 11.7915C2.54118 11.4463 2.821 11.1665 3.16618 11.1665H16.8486C17.1938 11.1665 17.4736 11.4463 17.4736 11.7915C17.4736 12.1367 17.1938 12.4165 16.8486 12.4165H3.16618C2.821 12.4165 2.54118 12.1367 2.54118 11.7915ZM17.427 15.4043C17.5814 15.0956 17.4562 14.7202 17.1475 14.5658C16.8388 14.4115 16.4634 14.5366 16.309 14.8453L15.8483 15.7666C15.7258 16.0117 15.4753 16.1665 15.2013 16.1665H3.16602C2.82084 16.1665 2.54102 16.4463 2.54102 16.7915C2.54102 17.1367 2.82084 17.4165 3.16602 17.4165H15.2013C15.9488 17.4165 16.6321 16.9942 16.9664 16.3257L17.427 15.4043Z">
    </path>
    <path class="jss227"
        d="M30.3025 6.032V6.288C30.3025 10.448 29.2465 13.28 24.6385 15.6L25.7745 17.216C31.2945 14.416 32.3825 10.608 32.3825 6.032H30.3025ZM25.5505 6.032V7.712H31.5665V6.032H25.5505ZM30.3505 9.664L24.7825 9.984L25.0385 11.808L30.3505 11.296V9.664ZM34.1745 4.592V19.408H36.3185V4.592H34.1745ZM35.7585 10.256V12H38.3665V10.256H35.7585ZM45.4533 10V11.712H48.0773V10H45.4533ZM39.8533 14.464V16.176H40.8613C42.9893 16.176 44.4133 16.144 46.0773 15.856L45.9013 14.16C44.2853 14.432 42.9413 14.464 40.8613 14.464H39.8533ZM39.8533 6.24V15.088H41.8693V7.92H45.3573V6.24H39.8533ZM41.2933 10.224V11.856H44.7973V10.224H41.2933ZM50.1253 4.608V19.424H52.1573V4.608H50.1253ZM47.0693 4.864V18.768H49.0533V4.864H47.0693ZM55.516 5.856V7.568H64.908V5.856H55.516ZM54.156 15.92V17.648H67.548V15.92H54.156ZM58.892 10.832V16.768H61.02V10.832H58.892ZM64.14 5.856V7.28C64.14 9.056 64.14 11.2 63.548 14.144L65.676 14.384C66.268 11.216 66.268 9.136 66.268 7.28V5.856H64.14ZM79.0668 4.592V19.456H81.1948V4.592H79.0668ZM69.6588 14.272V16H70.9708C73.6748 16 75.8508 15.92 78.2508 15.488L78.0428 13.776C75.6908 14.176 73.5948 14.272 70.9708 14.272H69.6588ZM69.6428 5.856V7.552H74.4588V9.904H69.6588V14.912H71.8188V11.584H76.6348V5.856H69.6428Z">
    </path>
</svg>