<svg width="61" height="60" viewBox="0 0 61 60" fill="none" xmlns="http://www.w3.org/2000/svg">
<rect x="0.5" width="60" height="60" rx="30" fill="#F4F4F4"/>
<path fill-rule="evenodd" clip-rule="evenodd" d="M41.5441 14.0679L12.9731 21.7235C10.8392 22.2953 9.57288 24.4886 10.1447 26.6225L11.5033 31.6931C13.0982 31.9116 14.4971 33.0914 14.9509 34.7849C15.4047 36.4784 14.7831 38.1996 13.5111 39.1862L14.5582 43.0941C15.13 45.2279 17.3233 46.4943 19.4572 45.9225L48.0282 38.2669C50.1621 37.6951 51.4284 35.5018 50.8567 33.3679L49.8089 29.4578C48.2139 29.2394 46.8149 28.0596 46.3611 26.366C45.9073 24.6723 46.529 22.9511 47.8011 21.9645L46.4431 16.8963C45.8714 14.7625 43.678 13.4962 41.5441 14.0679Z" fill="url(#paint0_linear_15533_295004)"/>
<path d="M19.3745 30.7435C18.4341 30.9955 17.8858 31.9004 18.1359 32.8341C18.388 33.7747 19.3153 34.2842 20.2557 34.0322C20.914 33.8558 21.3862 33.3614 21.5429 32.7307L22.5197 32.962C22.2502 33.8657 21.4964 34.5828 20.4765 34.8561C18.9646 35.2612 17.4967 34.4992 17.1232 33.1055C16.7498 31.7117 17.64 30.3179 19.1519 29.9128C20.1574 29.6433 21.1524 29.8845 21.8286 30.5275L21.1164 31.226C20.6799 30.7543 20.0255 30.5691 19.3745 30.7435Z" fill="white"/>
<path d="M22.4944 32.3138C22.2111 31.2565 22.8964 30.1972 24.0827 29.8793C25.2618 29.5634 26.3922 30.1362 26.6755 31.1935C26.9588 32.2508 26.2645 33.3052 25.0854 33.6212C23.899 33.939 22.7777 33.3712 22.4944 32.3138ZM23.4927 32.0463C23.6546 32.6505 24.2462 32.9777 24.8683 32.811C25.4832 32.6462 25.8319 32.0671 25.67 31.4629C25.5063 30.8519 24.9165 30.5316 24.3017 30.6963C23.6796 30.863 23.329 31.4353 23.4927 32.0463Z" fill="white"/>
<path d="M29.106 32.5438C28.2596 32.7706 27.4485 32.3477 27.2351 31.5513L26.6262 29.2787L27.6317 29.0093L28.2351 31.2613C28.3326 31.6252 28.6611 31.8094 29.03 31.7106C29.37 31.6195 29.6419 31.2744 29.7074 30.911L29.0929 28.6178L30.1056 28.3464L31.0678 31.9372L30.0551 32.2086L29.9704 31.8928C29.7907 32.2058 29.4894 32.4411 29.106 32.5438Z" fill="white"/>
<path d="M35.4908 28.8315C35.7741 29.8888 35.1521 30.9238 34.0598 31.2165C33.5824 31.3444 33.1133 31.3008 32.7106 31.1291L33.1926 32.9279L32.1871 33.1974L30.8349 28.151L31.8404 27.8816L31.9343 28.2317C32.1971 27.8817 32.5797 27.6025 33.0572 27.4746C34.1495 27.1819 35.2075 27.7741 35.4908 28.8315ZM34.4926 29.0989C34.3288 28.4879 33.739 28.1676 33.1242 28.3324C32.5093 28.4971 32.1587 29.0694 32.3224 29.6804C32.4843 30.2846 33.0759 30.6118 33.6908 30.447C34.3057 30.2823 34.6544 29.7031 34.4926 29.0989Z" fill="white"/>
<path d="M35.7367 28.7656C35.4534 27.7082 36.1387 26.6489 37.325 26.3311C38.5041 26.0151 39.6345 26.5879 39.9178 27.6453C40.2011 28.7026 39.5067 29.757 38.3276 30.0729C37.1413 30.3908 36.02 29.8229 35.7367 28.7656ZM36.735 28.4981C36.8968 29.1023 37.4885 29.4294 38.1106 29.2627C38.7254 29.098 39.0742 28.5189 38.9123 27.9147C38.7486 27.3036 38.1588 26.9833 37.5439 27.1481C36.9218 27.3148 36.5712 27.887 36.735 28.4981Z" fill="white"/>
<path d="M41.8665 25.1142C42.72 24.8855 43.5402 25.3133 43.7536 26.1097L44.3607 28.3754L43.3407 28.6487L42.7392 26.4036C42.6417 26.0397 42.3204 25.8535 41.9515 25.9524C41.6043 26.0454 41.3305 26.3837 41.2651 26.7471L41.8795 29.0402L40.874 29.3097L39.9119 25.7189L40.9174 25.4494L41.0038 25.7721C41.1836 25.4591 41.4831 25.2169 41.8665 25.1142Z" fill="white"/>
<defs>
<linearGradient id="paint0_linear_15533_295004" x1="27.2586" y1="17.8957" x2="33.7427" y2="42.0947" gradientUnits="userSpaceOnUse">
<stop stop-color="#35CCB7"/>
<stop offset="1" stop-color="#00B098"/>
</linearGradient>
</defs>
</svg>
