<svg class="MuiSvgIcon-root" focusable="false" viewBox="0 0 44 11" aria-hidden="true" role="img" width="44" height="11"
    fill="none">
    <path d="M0 0H20.4162V11H0V0Z" fill="#fff"></path>
    <path fill-rule="evenodd" clip-rule="evenodd"
        d="M7.27802 5.4206C7.54608 5.41199 7.85179 5.44911 8.05859 5.51742C8.26708 5.58788 8.43904 5.70513 8.57841 5.86919C8.71834 6.03324 8.82118 6.25269 8.89143 6.52593C8.95942 6.79971 8.99708 7.14126 8.99708 7.55004L8.9982 7.56672V7.59737V7.64256C8.9982 8.13847 9.02293 8.58921 9.13982 8.98401C9.2567 9.38096 9.4444 9.72144 9.69953 10.0022C9.9541 10.2781 10.2868 10.4917 10.6959 10.6439C11.1033 10.7961 11.5973 10.8709 12.1801 10.8709C13.2292 10.8709 14.0334 10.581 14.5937 10.0033C15.1399 9.43905 15.4277 8.66882 15.4378 7.69688L15.4462 7.38814C15.4462 6.97936 15.4867 6.63512 15.5738 6.35758C15.6614 6.07949 15.7856 5.85735 15.9458 5.69491C16.1059 5.52764 16.2993 5.41522 16.5252 5.34906C16.7511 5.2829 16.9972 5.2544 17.2681 5.263C17.5361 5.2544 17.7755 5.28398 17.9818 5.35552C18.1892 5.4249 18.3639 5.5427 18.5033 5.70513C18.6427 5.86919 18.7455 6.08541 18.8146 6.36188C18.8837 6.63834 18.9191 6.97936 18.9191 7.38814L18.9236 10.7907L20.4162 10.7961V7.76842C20.4162 7.26981 20.3578 6.82122 20.2403 6.42481C20.124 6.02786 19.9363 5.68846 19.6806 5.4093C19.4238 5.13069 19.0934 4.91661 18.6854 4.76601C18.2757 4.61379 17.7829 4.53795 17.2001 4.53795C16.1509 4.53795 15.3484 4.82625 14.7864 5.40392C14.229 5.98053 13.9491 6.76959 13.9491 7.76842L13.9413 8.09222C13.9413 8.50208 13.8929 8.77585 13.8053 9.05232C13.7187 9.33148 13.5956 9.5547 13.4344 9.71713C13.2742 9.88011 13.0798 9.99252 12.8561 10.0598C12.6296 10.1248 12.3829 10.1533 12.1137 10.1458C11.8451 10.1533 11.6057 10.1238 11.3984 10.0533C11.1887 9.98284 11.0162 9.86881 10.8769 9.70476C10.7375 9.54071 10.6358 9.32233 10.5666 9.04694C10.4953 8.7737 10.461 8.43054 10.461 8.02176L10.4503 7.86739C10.4492 7.38115 10.4323 6.97828 10.3183 6.58778C10.1986 6.19083 10.0131 5.85144 9.75742 5.57389C9.50172 5.29689 9.16904 5.0812 8.76217 4.92898C8.3525 4.77676 7.85741 4.702 7.27802 4.702H5.38026V3.07708C5.38026 2.6441 5.45388 2.27942 5.59887 1.9852C5.74554 1.68614 5.93211 1.44733 6.16196 1.26768C6.39124 1.08372 6.65255 0.961089 6.94309 0.890627C7.23644 0.820166 7.52585 0.78359 7.81582 0.78359H9.13982V-9.15527e-05H7.81582C6.50307 0.0090523 5.49884 0.324246 4.80425 0.943339C4.11022 1.56297 3.76236 2.40958 3.76236 3.4821V4.702H2.48951V5.4206H3.76236L3.76011 6.93525L3.75899 7.92386C3.75899 8.35578 3.6865 8.72153 3.53982 9.01467C3.39596 9.3105 3.20826 9.55039 2.97898 9.73004C2.74633 9.91077 2.48839 10.0388 2.19504 10.1092C1.90506 10.1797 1.61453 10.2152 1.32343 10.2152H0V11H1.32343C2.63618 10.9897 3.64042 10.6756 4.33557 10.0565C5.03016 9.43582 5.37801 8.58921 5.37801 7.51615V6.93525L5.38026 5.4206H7.27802Z"
        fill="#787878"></path>
    <path fill-rule="evenodd" clip-rule="evenodd"
        d="M33.2041 8.25285C33.2041 8.65841 33.1271 9.02201 32.9748 9.3442C32.8186 9.66477 32.6101 9.94339 32.3471 10.1763C32.0835 10.4097 31.7694 10.5894 31.4136 10.7152C31.0562 10.8406 30.6741 10.9035 30.2656 10.9035C29.6721 10.9035 29.1439 10.755 28.6819 10.4571C28.22 10.1618 27.8963 9.74975 27.7075 9.21941L25.4298 2.61486C25.3652 2.39594 25.2804 2.22598 25.1753 2.10818C25.0707 1.9877 24.9252 1.92746 24.7375 1.92746C24.1755 1.92746 23.8945 2.23942 23.8945 2.86336V10.8088H21.7653V2.67564C21.7653 2.28138 21.8394 1.91939 21.9889 1.59236C22.1373 1.2648 22.3446 0.986178 22.6071 0.759195C22.8723 0.530599 23.1809 0.35579 23.5388 0.228852C23.8974 0.105141 24.2874 0.0438232 24.7032 0.0438232C25.286 0.0438232 25.8109 0.189049 26.2728 0.480039C26.7336 0.768877 27.0584 1.18196 27.2461 1.70908L29.5412 8.32869C29.617 8.54922 29.7058 8.71381 29.8047 8.82246C29.9036 8.93057 30.0464 8.98382 30.233 8.98382C30.7949 8.98382 31.0748 8.67401 31.0748 8.05007V0.0734063H33.2041V8.25285Z"
        fill="#454545"></path>
    <path fill-rule="evenodd" clip-rule="evenodd"
        d="M39.8577 10.8088C36.4016 10.8088 34.6736 9.02203 34.6736 5.44893V5.4016C34.6848 1.8511 36.4179 0.0734253 39.8729 0.0734253H44V1.95921H39.3615C38.4584 1.95921 37.7852 2.23729 37.339 2.79937C36.8933 3.35929 36.6691 4.24302 36.6691 5.45646C36.6691 7.76878 37.5615 8.92413 39.343 8.92413H43.9825V10.8088H39.8577Z"
        fill="#454545"></path>
</svg>