<svg width="60" height="60" viewBox="0 0 60 60" fill="none" xmlns="http://www.w3.org/2000/svg">
    <rect width="60" height="60" rx="30" fill="#F4F4F4" />
    <path
        d="M17.7816 22.3506C22.4269 16.8776 27.9422 15.5787 27.0869 9.90136C26.9689 9.08406 27.6768 8.35432 28.5026 8.55865C34.9323 10.1057 39.1795 16.1041 36.8052 24.2188C36.6577 24.715 37.0854 25.2258 37.5868 25.0944C39.209 24.7004 40.4035 23.2555 41.0523 21.6063C41.3325 20.8766 42.3353 20.7598 42.8072 21.3874C46.5235 26.3788 47.0839 33.2237 45.6092 38.361C44.3999 42.5497 41.5832 46.0232 37.6605 47.8476C33.0005 50.0222 26.2169 50.2265 20.672 46.7676C12.1187 41.4405 11.6173 29.6334 17.7963 22.3652L17.7816 22.3506Z"
        fill="url(#paint0_linear_15213_257979)" />
    <path
        d="M19.6897 39.0826C19.1707 39.0826 18.75 38.6619 18.75 38.1429V32.0868C18.75 31.5678 19.1707 31.147 19.6897 31.147C20.2087 31.147 20.6294 31.5678 20.6294 32.0868V34.3034H23.6988V32.0868C23.6988 31.5678 24.1195 31.147 24.6385 31.147C25.1575 31.147 25.5782 31.5678 25.5782 32.0868V38.1429C25.5782 38.6619 25.1575 39.0826 24.6385 39.0826C24.1195 39.0826 23.6988 38.6619 23.6988 38.1429V35.8815H20.6294V38.1429C20.6294 38.6619 20.2087 39.0826 19.6897 39.0826Z"
        fill="white" />
    <path
        d="M26.5589 35.1092C26.5589 32.8036 28.405 31.0239 30.796 31.0239C33.1869 31.0239 35.033 32.8036 35.033 35.1092C35.033 37.4261 33.1869 39.2057 30.796 39.2057C28.405 39.2057 26.5589 37.4261 26.5589 35.1092ZM28.405 35.1092C28.405 36.5307 29.4392 37.6052 30.796 37.6052C32.1527 37.6052 33.1869 36.5307 33.1869 35.1092C33.1869 33.6878 32.1527 32.6245 30.796 32.6245C29.4392 32.6245 28.405 33.6878 28.405 35.1092Z"
        fill="white" />
    <path
        d="M38.2752 39.0826C37.7562 39.0826 37.3355 38.6619 37.3355 38.1429V32.7252H36.1005C35.6648 32.7252 35.3115 32.3719 35.3115 31.9361C35.3115 31.5003 35.6648 31.147 36.1005 31.147H40.4609C40.8967 31.147 41.25 31.5003 41.25 31.9361C41.25 32.3719 40.8967 32.7252 40.4609 32.7252H39.2149V38.1429C39.2149 38.6619 38.7942 39.0826 38.2752 39.0826Z"
        fill="white" />
    <defs>
        <linearGradient id="paint0_linear_15213_257979" x1="30.0004" y1="8.52393" x2="30.0004" y2="49.433"
            gradientUnits="userSpaceOnUse">
            <stop stop-color="#EA9A00" />
            <stop offset="1" stop-color="#EA0039" />
        </linearGradient>
    </defs>
</svg>