<svg class="MuiSvgIcon-root jss199" focusable="false" viewBox="0 0 28 28" aria-hidden="true" role="img">
    <path fill-rule="evenodd" clip-rule="evenodd"
        d="M13.7139 15.3297C10.9083 15.2274 8.71686 12.8701 8.81916 10.0645C8.92147 7.25891 11.2788 5.06747 14.0844 5.16977C14.9991 5.20313 15.8464 5.47544 16.5709 5.92399C16.6587 5.97832 16.8609 6.07928 17.1179 6.15252C17.3757 6.22596 17.7612 6.29262 18.1754 6.19503C18.6217 6.08987 19.0358 5.80801 19.3171 5.30562C19.5822 4.8322 19.7087 4.20212 19.7087 3.40527C19.7087 2.99106 19.3729 2.65527 18.9587 2.65527C18.5444 2.65527 18.2087 2.99106 18.2087 3.40527C18.2087 4.06676 18.0997 4.40948 18.0083 4.5728C17.9331 4.70716 17.8696 4.72601 17.8313 4.73502C17.761 4.7516 17.6552 4.7459 17.5289 4.70994C17.4423 4.68525 17.3801 4.65622 17.3599 4.64675L17.3599 4.64674C17.3505 4.64235 17.3501 4.64218 17.3605 4.64863C16.4204 4.06662 15.3208 3.71386 14.139 3.67077C10.5056 3.53828 7.45265 6.37637 7.32016 10.0098C7.18766 13.6433 10.0258 16.6962 13.6592 16.8287C17.2927 16.9612 20.3456 14.1231 20.4781 10.4896C20.5082 9.66318 20.3844 8.86508 20.1315 8.12417C19.9978 7.73216 19.5715 7.52281 19.1795 7.65658C18.7875 7.79036 18.5781 8.2166 18.7119 8.60861C18.9065 9.17888 19.0024 9.7944 18.9791 10.435C18.8768 13.2406 16.5195 15.432 13.7139 15.3297ZM7.24111 22.6031C8.61026 20.777 10.7594 19.7023 13.0417 19.7023H14.375C16.6567 19.7023 18.8052 20.7763 20.1744 22.6014L21.2754 24.069C21.524 24.4003 21.9941 24.4674 22.3255 24.2189C22.6568 23.9703 22.7239 23.5002 22.4753 23.1688L21.3743 21.7013C19.7218 19.4986 17.1287 18.2023 14.375 18.2023H13.0417C10.2872 18.2023 7.69341 19.4994 6.04098 21.7032L4.94197 23.169C4.69349 23.5004 4.76071 23.9705 5.09212 24.219C5.42353 24.4675 5.89362 24.4002 6.1421 24.0688L7.24111 22.6031Z">
    </path>
</svg>