<?xml version="1.0" standalone="no"?>
<!DOCTYPE svg PUBLIC "-//W3C//DTD SVG 20010904//EN"
 "http://www.w3.org/TR/2001/REC-SVG-20010904/DTD/svg10.dtd">
<svg version="1.0" xmlns="http://www.w3.org/2000/svg"
 width="206.000000pt" height="51.000000pt" viewBox="0 0 206.000000 51.000000"
 preserveAspectRatio="xMidYMid meet">

<g transform="translate(0.000000,51.000000) scale(0.100000,-0.100000)"
fill="#000000" stroke="none">
<path d="M557 454 c-4 -4 -7 -56 -7 -116 0 -89 3 -108 15 -108 10 0 15 10 15
31 0 49 16 69 56 69 45 0 41 24 -4 28 -60 6 -61 55 -2 64 45 6 30 33 -20 36
-25 2 -49 0 -53 -4z"/>
<path d="M1477 448 c-13 -7 -17 -23 -17 -71 0 -65 11 -87 42 -87 19 0 25 -25
9 -34 -5 -4 -27 -7 -50 -8 -46 -1 -66 -11 -57 -27 9 -14 244 -15 266 -1 22 13
4 24 -43 27 -23 1 -48 2 -54 2 -7 1 -13 10 -13 21 0 15 7 20 26 20 19 0 25 4
22 18 -3 18 -6 19 -68 21 -28 1 -40 5 -40 16 0 12 13 15 55 15 42 0 55 3 55
15 0 12 -13 15 -55 15 -41 0 -55 4 -55 14 0 11 15 16 53 18 38 2 52 7 52 18 0
11 -13 15 -56 16 -30 1 -63 -2 -72 -8z"/>
<path d="M1900 445 c-10 -12 -7 -15 17 -20 49 -11 53 -14 53 -34 0 -14 -9 -23
-27 -27 -46 -10 -53 -13 -53 -24 0 -5 13 -10 28 -10 35 0 52 -16 52 -49 0 -33
14 -56 29 -47 12 8 16 182 5 210 -8 21 -87 22 -104 1z"/>
<path d="M922 330 c4 -161 22 -163 26 -2 2 105 0 122 -13 122 -13 0 -15 -17
-13 -120z"/>
<path d="M1224 437 c-2 -7 -3 -62 -2 -123 3 -114 19 -148 28 -59 6 59 15 75
40 75 16 0 19 -9 22 -62 5 -111 23 -70 26 60 2 104 0 122 -13 122 -11 0 -15
-11 -15 -46 0 -44 -1 -45 -27 -42 -25 3 -28 7 -31 46 -3 41 -17 56 -28 29z"/>
<path d="M104 419 c-10 -17 8 -29 46 -29 63 0 70 -6 70 -62 0 -35 4 -48 13
-46 17 6 22 129 5 139 -17 11 -127 9 -134 -2z"/>
<path d="M1073 409 c-20 -7 -23 -16 -23 -61 0 -74 6 -80 75 -76 68 4 92 28 27
28 -48 0 -74 24 -61 58 6 16 16 22 41 22 18 0 39 4 46 9 35 22 -54 40 -105 20z"/>
<path d="M1735 410 c-7 -12 8 -18 55 -22 27 -2 35 -7 35 -23 0 -15 -9 -21 -38
-26 -51 -8 -59 -18 -55 -70 l3 -44 63 -3 c51 -2 62 0 62 13 0 11 -11 15 -45
15 -41 0 -45 2 -45 25 0 22 5 25 33 25 17 0 37 4 43 8 17 11 26 49 19 82 -6
29 -8 30 -65 30 -32 0 -62 -5 -65 -10z"/>
<path d="M380 390 c-11 -11 -20 -33 -20 -50 0 -65 79 -94 119 -44 27 35 26 57
-3 88 -28 31 -68 34 -96 6z m79 -39 c15 -28 -19 -57 -48 -41 -22 11 -25 19
-15 44 8 22 51 20 63 -3z"/>
<path d="M764 398 c-77 -36 -23 -154 57 -126 16 5 29 11 30 11 8 22 6 86 -3
99 -17 21 -58 29 -84 16z m61 -48 c8 -25 -10 -50 -35 -50 -21 0 -33 25 -25 51
9 26 52 25 60 -1z"/>
<path d="M147 314 c-4 -4 -7 -24 -7 -44 0 -45 -13 -58 -65 -62 -22 -2 -39 -7
-37 -13 1 -6 54 -10 132 -10 78 0 131 4 133 10 1 6 -16 11 -38 13 -80 5 -84 8
-87 59 -3 44 -15 62 -31 47z"/>
<path d="M466 209 c-32 -25 -35 -70 -6 -99 29 -29 74 -26 100 7 25 32 20 69
-13 95 -29 23 -49 22 -81 -3z m72 -51 c2 -19 -2 -28 -18 -33 -37 -12 -64 27
-38 53 21 21 53 10 56 -20z"/>
<path d="M1880 212 c-47 -38 -19 -122 42 -122 54 0 88 69 56 113 -21 27 -70
32 -98 9z m77 -38 c8 -22 -10 -49 -32 -49 -22 0 -40 27 -32 49 8 21 56 21 64
0z"/>
<path d="M1515 180 c-28 -11 -41 -30 -43 -64 -4 -54 49 -87 97 -61 50 25 54
64 12 106 -32 31 -35 32 -66 19z m50 -65 c0 -25 -4 -30 -24 -30 -32 0 -49 28
-31 50 7 9 23 15 34 13 16 -2 21 -10 21 -33z"/>
</g>
</svg>
