<svg width="60" height="60" viewBox="0 0 60 60" fill="none" xmlns="http://www.w3.org/2000/svg">
    <rect width="60" height="60" rx="30" fill="#F4F4F4" />
    <path
        d="M29.1888 10.822C29.5881 10.271 30.4091 10.271 30.8083 10.822L32.6224 13.3253C32.9291 13.7486 33.5102 13.8642 33.9557 13.5905L36.5896 11.972C37.1693 11.6157 37.9278 11.9299 38.0858 12.5917L38.8038 15.5987C38.9252 16.1072 39.4178 16.4363 39.9341 16.3539L42.9869 15.8665C43.6588 15.7593 44.2393 16.3398 44.1321 17.0117L43.6447 20.0645C43.5623 20.5808 43.8915 21.0734 44.4 21.1948L47.4069 21.9128C48.0687 22.0708 48.3829 22.8293 48.0267 23.409L46.4081 26.043C46.1344 26.4884 46.25 27.0695 46.6733 27.3762L49.1766 29.1903C49.7276 29.5896 49.7276 30.4105 49.1766 30.8098L46.6733 32.6238C46.25 32.9306 46.1344 33.5117 46.4081 33.9571L48.0267 36.5911C48.3829 37.1708 48.0687 37.9292 47.4069 38.0873L44.4 38.8053C43.8915 38.9267 43.5623 39.4193 43.6447 39.9356L44.1321 42.9884C44.2393 43.6603 43.6588 44.2408 42.9869 44.1335L39.9341 43.6462C39.4178 43.5638 38.9252 43.8929 38.8038 44.4014L38.0858 47.4084C37.9278 48.0702 37.1693 48.3844 36.5896 48.0281L33.9557 46.4096C33.5102 46.1359 32.9291 46.2515 32.6224 46.6748L30.8083 49.1781C30.4091 49.729 29.5881 49.729 29.1888 49.1781L27.3748 46.6748C27.068 46.2515 26.4869 46.1359 26.0415 46.4096L23.4076 48.0281C22.8279 48.3844 22.0694 48.0702 21.9114 47.4084L21.1934 44.4014C21.0719 43.8929 20.5793 43.5638 20.0631 43.6462L17.0102 44.1335C16.3383 44.2408 15.7578 43.6603 15.8651 42.9884L16.3524 39.9356C16.4349 39.4193 16.1057 38.9267 15.5972 38.8053L12.5902 38.0873C11.9284 37.9292 11.6143 37.1708 11.9705 36.5911L13.589 33.9571C13.8627 33.5117 13.7472 32.9306 13.3238 32.6238L10.8205 30.8098C10.2696 30.4105 10.2696 29.5896 10.8205 29.1903L13.3238 27.3762C13.7472 27.0695 13.8627 26.4884 13.589 26.043L11.9705 23.409C11.6143 22.8293 11.9284 22.0708 12.5902 21.9128L15.5972 21.1948C16.1057 21.0734 16.4349 20.5808 16.3524 20.0645L15.8651 17.0117C15.7578 16.3398 16.3383 15.7593 17.0102 15.8665L20.0631 16.3539C20.5793 16.4363 21.0719 16.1072 21.1934 15.5987L21.9114 12.5917C22.0694 11.9299 22.8279 11.6157 23.4076 11.972L26.0415 13.5905C26.4869 13.8642 27.068 13.7486 27.3748 13.3253L29.1888 10.822Z"
        fill="#FF8A00" />
    <mask id="mask0_15213_257986" style="mask-type:alpha" maskUnits="userSpaceOnUse" x="10" y="10" width="40"
        height="40">
        <path
            d="M29.5937 11.1168C29.7933 10.8414 30.2038 10.8414 30.4035 11.1168L32.2175 13.6202C32.6777 14.2552 33.5493 14.4285 34.2174 14.018L36.8514 12.3994C37.1412 12.2213 37.5205 12.3784 37.5995 12.7093L38.3175 15.7163C38.4996 16.479 39.2385 16.9728 40.0129 16.8491L43.0658 16.3618C43.4017 16.3081 43.692 16.5984 43.6383 16.9343L43.151 19.9872C43.0273 20.7616 43.5211 21.5005 44.2838 21.6826L47.2908 22.4006C47.6217 22.4796 47.7788 22.8589 47.6007 23.1487L45.9821 25.7827C45.5716 26.4508 45.7449 27.3224 46.3799 27.7826L48.8832 29.5966C49.1587 29.7963 49.1587 30.2068 48.8832 30.4064L46.3799 32.2204C45.7449 32.6806 45.5716 33.5522 45.9821 34.2204L47.6007 36.8543C47.7788 37.1442 47.6217 37.5234 47.2908 37.6024L44.2838 38.3204C43.5211 38.5025 43.0273 39.2415 43.151 40.0159L43.6383 43.0687C43.692 43.4046 43.4017 43.6949 43.0658 43.6413L40.0129 43.1539C39.2385 43.0303 38.4996 43.524 38.3175 44.2868L37.5995 47.2937C37.5205 47.6246 37.1412 47.7817 36.8514 47.6036L34.2174 45.9851C33.5493 45.5745 32.6777 45.7479 32.2175 46.3829L30.4035 48.8862C30.2038 49.1616 29.7933 49.1616 29.5937 48.8862L27.7797 46.3829C27.3195 45.7479 26.4479 45.5745 25.7797 45.9851L23.1458 47.6036C22.8559 47.7817 22.4767 47.6246 22.3977 47.2937L21.6797 44.2868C21.4976 43.524 20.7586 43.0303 19.9842 43.1539L16.9314 43.6413C16.5954 43.6949 16.3052 43.4046 16.3588 43.0687L16.8462 40.0159C16.9698 39.2415 16.4761 38.5025 15.7133 38.3204L12.7064 37.6024C12.3755 37.5234 12.2184 37.1442 12.3965 36.8543L14.015 34.2204C14.4256 33.5522 14.2522 32.6806 13.6172 32.2204L11.1139 30.4064C10.8384 30.2068 10.8384 29.7963 11.1139 29.5966L13.6172 27.7826C14.2522 27.3224 14.4256 26.4508 14.015 25.7827L12.3965 23.1487C12.2184 22.8589 12.3755 22.4796 12.7064 22.4006L15.7133 21.6826C16.4761 21.5005 16.9698 20.7616 16.8462 19.9872L16.3588 16.9343C16.3052 16.5984 16.5954 16.3081 16.9314 16.3618L19.9842 16.8491C20.7586 16.9728 21.4976 16.479 21.6797 15.7163L22.3977 12.7093C22.4767 12.3784 22.8559 12.2213 23.1458 12.3994L25.7797 14.018C26.4479 14.4285 27.3195 14.2552 27.7797 13.6202L29.5937 11.1168Z"
            fill="#FF9900" stroke="#9B5D00" />
    </mask>
    <g mask="url(#mask0_15213_257986)">
        <path d="M50.2923 9.70605L10.7695 49.2288V9.70605H50.2923Z" fill="#FFA800" />
    </g>
    <path
        d="M23.6433 32.9324L22.7744 28.9365C22.6812 28.5079 22.9543 28.0853 23.3833 27.9941C23.8109 27.9032 24.2312 28.1762 24.3221 28.6038L25.409 33.7175C25.5239 34.2577 25.179 34.7887 24.6388 34.9035L24.3785 34.9589C24.0502 35.0286 23.7088 34.9291 23.4695 34.6937L19.6773 30.9646L20.5474 34.9661C20.6399 35.3916 20.3688 35.8112 19.9429 35.9017C19.5184 35.9919 19.1011 35.7209 19.0109 35.2964L17.9228 30.1771C17.8079 29.6369 18.1528 29.1059 18.693 28.9911L18.9421 28.9381C19.2704 28.8683 19.6118 28.9679 19.8511 29.2033L23.6433 32.9324Z"
        fill="white" />
    <path
        d="M28.1778 34.1513C27.6376 34.2661 27.1066 33.9213 26.9918 33.3811L25.9482 28.4713C25.8333 27.9311 26.1782 27.4 26.7184 27.2852L29.9889 26.59C30.3126 26.5212 30.6308 26.7279 30.6996 27.0516C30.7684 27.3753 30.5618 27.6935 30.2381 27.7623L27.575 28.3284L27.9267 29.9833L30.2723 29.4848C30.5987 29.4154 30.9196 29.6237 30.989 29.9502C31.0584 30.2766 30.85 30.5975 30.5236 30.6669L28.178 31.1654L28.5361 32.8499L31.4002 32.2411C31.7239 32.1723 32.0421 32.379 32.1109 32.7027C32.1797 33.0264 31.973 33.3446 31.6493 33.4134L28.1778 34.1513Z"
        fill="white" />
    <path
        d="M36.6579 25.1725C37.0979 25.079 37.5462 25.2907 37.7534 25.69L39.8139 29.66L40.0409 25.0633C40.0588 24.7 40.3191 24.3943 40.6749 24.3187C41.2053 24.2059 41.6922 24.6413 41.6394 25.181L41.0996 30.6914C41.0571 31.1251 40.7386 31.4814 40.3123 31.572L40.1403 31.6086C39.7068 31.7007 39.2643 31.4965 39.0531 31.1069L36.9128 27.1569L36.5641 31.6359C36.5297 32.0778 36.2086 32.4443 35.7751 32.5365L35.593 32.5752C35.1661 32.6659 34.7298 32.4694 34.5148 32.0896L31.7831 27.2633C31.5192 26.7969 31.7842 26.2084 32.3084 26.097C32.6591 26.0225 33.0162 26.1925 33.1794 26.5118L35.2806 30.6235L35.5482 26.1587C35.5752 25.7097 35.8986 25.3339 36.3385 25.2404L36.6579 25.1725Z"
        fill="white" />
</svg>