<?xml version="1.0" encoding="UTF-8"?>
<!DOCTYPE svg PUBLIC "-//W3C//DTD SVG 1.1//EN" "http://www.w3.org/Graphics/SVG/1.1/DTD/svg11.dtd">
<svg xmlns="http://www.w3.org/2000/svg" version="1.1" width="180px" height="180px" style="shape-rendering:geometricPrecision; text-rendering:geometricPrecision; image-rendering:optimizeQuality; fill-rule:evenodd; clip-rule:evenodd" xmlns:xlink="http://www.w3.org/1999/xlink">
<g><path style="opacity:1" fill="#fefefe" d="M -0.5,-0.5 C 26.1667,-0.5 52.8333,-0.5 79.5,-0.5C 34.494,7.83931 7.82736,34.506 -0.5,79.5C -0.5,52.8333 -0.5,26.1667 -0.5,-0.5 Z"/></g>
<g><path style="opacity:1" fill="#f3f3f3" d="M 79.5,-0.5 C 86.1667,-0.5 92.8333,-0.5 99.5,-0.5C 144.5,7.83333 171.167,34.5 179.5,79.5C 179.5,86.1667 179.5,92.8333 179.5,99.5C 171.17,144.497 144.503,171.163 99.5,179.5C 92.8333,179.5 86.1667,179.5 79.5,179.5C 34.5,171.167 7.83333,144.5 -0.5,99.5C -0.5,92.8333 -0.5,86.1667 -0.5,79.5C 7.82736,34.506 34.494,7.83931 79.5,-0.5 Z"/></g>
<g><path style="opacity:1" fill="#fefefe" d="M 99.5,-0.5 C 126.167,-0.5 152.833,-0.5 179.5,-0.5C 179.5,26.1667 179.5,52.8333 179.5,79.5C 171.167,34.5 144.5,7.83333 99.5,-0.5 Z"/></g>
<g><path style="opacity:1" fill="#c1bca9" d="M 81.5,32.5 C 80.3915,33.29 79.0581,33.79 77.5,34C 71.1754,34.4995 64.8421,34.6662 58.5,34.5C 65.9227,32.7454 73.5894,32.0787 81.5,32.5 Z"/></g>
<g><path style="opacity:1" fill="#676452" d="M 85.5,32.5 C 88.8333,32.5 92.1667,32.5 95.5,32.5C 96.6002,33.5585 97.9336,34.3918 99.5,35C 98.5842,35.2784 97.9175,35.7784 97.5,36.5C 94.9195,35.8844 92.2529,35.5511 89.5,35.5C 86.7305,35.5286 84.3972,36.1952 82.5,37.5C 80.1667,37.5 77.8333,37.5 75.5,37.5C 77.2922,36.6909 79.2922,36.1909 81.5,36C 80.552,35.5172 79.552,35.3505 78.5,35.5C 80.9752,34.8686 83.3085,33.8686 85.5,32.5 Z"/></g>
<g><path style="opacity:1" fill="#8c8a77" d="M 81.5,32.5 C 82.8333,32.5 84.1667,32.5 85.5,32.5C 83.3085,33.8686 80.9752,34.8686 78.5,35.5C 73.1556,35.8159 67.8222,36.3159 62.5,37C 61.2625,37.2321 60.2625,37.7321 59.5,38.5C 58.5084,38.3284 57.8417,38.6618 57.5,39.5C 57.1667,39.5 56.8333,39.5 56.5,39.5C 55.4017,38.3991 55.235,37.0657 56,35.5C 56.6708,34.7476 57.5041,34.4142 58.5,34.5C 64.8421,34.6662 71.1754,34.4995 77.5,34C 79.0581,33.79 80.3915,33.29 81.5,32.5 Z"/></g>
<g><path style="opacity:1" fill="#a9a796" d="M 95.5,32.5 C 100.844,32.334 106.177,32.5006 111.5,33C 115.465,33.1077 119.132,33.941 122.5,35.5C 118.154,35.3343 113.821,35.501 109.5,36C 110.833,36.3333 112.167,36.6667 113.5,37C 108.472,37.5883 103.472,37.4216 98.5,36.5C 98.1667,36.5 97.8333,36.5 97.5,36.5C 97.9175,35.7784 98.5842,35.2784 99.5,35C 97.9336,34.3918 96.6002,33.5585 95.5,32.5 Z"/></g>
<g><path style="opacity:1" fill="#b1b6b6" d="M 78.5,35.5 C 79.552,35.3505 80.552,35.5172 81.5,36C 79.2922,36.1909 77.2922,36.6909 75.5,37.5C 71.6286,37.185 67.9619,37.5184 64.5,38.5C 63.1667,38.5 61.8333,38.5 60.5,38.5C 60.1667,38.5 59.8333,38.5 59.5,38.5C 60.2625,37.7321 61.2625,37.2321 62.5,37C 67.8222,36.3159 73.1556,35.8159 78.5,35.5 Z"/></g>
<g><path style="opacity:1" fill="#605f5d" d="M 122.5,35.5 C 123.686,36.7054 123.686,38.0387 122.5,39.5C 121.292,38.7659 119.959,38.4326 118.5,38.5C 115.833,38.5 113.167,38.5 110.5,38.5C 110.335,41.5184 110.502,44.5184 111,47.5C 112.488,46.8042 113.988,47.1375 115.5,48.5C 114.675,49.3857 113.675,49.719 112.5,49.5C 111.883,49.3893 111.383,49.056 111,48.5C 110.689,50.556 110.189,52.556 109.5,54.5C 109.957,55.2975 110.624,55.6309 111.5,55.5C 110.699,57.0418 110.366,58.7085 110.5,60.5C 107.609,59.5975 104.609,59.2641 101.5,59.5C 101.5,60.8333 101.5,62.1667 101.5,63.5C 101.167,63.5 100.833,63.5 100.5,63.5C 100.5,62.5 100.5,61.5 100.5,60.5C 99.5,60.5 98.5,60.5 97.5,60.5C 98.209,59.596 99.209,59.2627 100.5,59.5C 100.5,57.8333 100.5,56.1667 100.5,54.5C 101.895,55.8146 102.895,55.4812 103.5,53.5C 102.624,53.6309 101.957,53.2975 101.5,52.5C 102.681,50.802 102.681,49.1353 101.5,47.5C 100.571,48.5498 99.9046,48.5498 99.5,47.5C 99.756,43.7307 99.4227,40.0641 98.5,36.5C 103.472,37.4216 108.472,37.5883 113.5,37C 112.167,36.6667 110.833,36.3333 109.5,36C 113.821,35.501 118.154,35.3343 122.5,35.5 Z"/></g>
<g><path style="opacity:1" fill="#4c4a4b" d="M 64.5,38.5 C 67.9619,37.5184 71.6286,37.185 75.5,37.5C 77.8333,37.5 80.1667,37.5 82.5,37.5C 82.2155,39.4147 82.5489,41.0813 83.5,42.5C 83.0472,43.4584 82.3805,44.2917 81.5,45C 81.7284,45.3988 82.0618,45.5654 82.5,45.5C 82.5,46.1667 82.5,46.8333 82.5,47.5C 81.5,47.8333 80.8333,48.5 80.5,49.5C 79.2876,50.2299 78.2876,51.2299 77.5,52.5C 76.7025,52.0431 76.3691,51.3764 76.5,50.5C 77.0592,48.3208 77.7259,46.1542 78.5,44C 78.1667,43.5 77.8333,43 77.5,42.5C 74.6538,43.3985 71.8204,44.3985 69,45.5C 68.6667,44.8333 68.3333,44.1667 68,43.5C 67.7963,46.7974 66.963,49.7974 65.5,52.5C 65.5,51.8333 65.5,51.1667 65.5,50.5C 64.1667,48.1667 64.1667,45.8333 65.5,43.5C 66.209,42.596 67.209,42.2627 68.5,42.5C 68.5,41.1667 68.5,39.8333 68.5,38.5C 67.1667,38.5 65.8333,38.5 64.5,38.5 Z"/></g>
<g><path style="opacity:1" fill="#9e946f" d="M 83.5,42.5 C 84.7152,43.779 84.3818,44.779 82.5,45.5C 82.0618,45.5654 81.7284,45.3988 81.5,45C 82.3805,44.2917 83.0472,43.4584 83.5,42.5 Z"/></g>
<g><path style="opacity:1" fill="#714f64" d="M 59.5,38.5 C 59.8333,38.5 60.1667,38.5 60.5,38.5C 60.1721,49.6794 60.5054,60.6794 61.5,71.5C 61.44,72.0431 61.1067,72.3764 60.5,72.5C 59.5012,61.1862 59.1678,49.8529 59.5,38.5 Z"/></g>
<g><path style="opacity:1" fill="#cdc199" d="M 76.5,50.5 C 75.1667,51.8333 75.1667,53.1667 76.5,54.5C 76.5,55.1667 76.1667,55.5 75.5,55.5C 74.8476,54.5514 74.5143,53.3847 74.5,52C 74.9253,49.3778 75.4253,46.8778 76,44.5C 73.3884,47.3886 71.5551,50.7219 70.5,54.5C 70.1667,54.1667 69.8333,53.8333 69.5,53.5C 72.2598,43.4146 71.5931,43.0812 67.5,52.5C 66.4039,56.2887 65.7373,56.2887 65.5,52.5C 66.963,49.7974 67.7963,46.7974 68,43.5C 68.3333,44.1667 68.6667,44.8333 69,45.5C 71.8204,44.3985 74.6538,43.3985 77.5,42.5C 77.8333,43 78.1667,43.5 78.5,44C 77.7259,46.1542 77.0592,48.3208 76.5,50.5 Z"/></g>
<g><path style="opacity:1" fill="#8f8058" d="M 65.5,43.5 C 64.1667,45.8333 64.1667,48.1667 65.5,50.5C 63.7483,50.5824 62.7483,49.7491 62.5,48C 62.8985,46.0188 63.8985,44.5188 65.5,43.5 Z"/></g>
<g><path style="opacity:1" fill="#caae64" d="M 99.5,47.5 C 99.9046,48.5498 100.571,48.5498 101.5,47.5C 102.681,49.1353 102.681,50.802 101.5,52.5C 101.957,53.2975 102.624,53.6309 103.5,53.5C 102.895,55.4812 101.895,55.8146 100.5,54.5C 100.657,53.1266 100.49,51.7932 100,50.5C 98.7485,52.0009 97.7485,53.6675 97,55.5C 96.6948,53.4432 96.6948,51.4432 97,49.5C 95.907,51.3492 94.5737,53.0158 93,54.5C 92.6667,54.1667 92.3333,53.8333 92,53.5C 89.876,54.2272 87.7094,54.8938 85.5,55.5C 84.1195,55.0004 83.4528,54.0004 83.5,52.5C 84.3364,50.1581 85.6698,48.1581 87.5,46.5C 90.6295,48.0803 91.4628,50.4137 90,53.5C 92.1485,52.0226 93.4818,50.0226 94,47.5C 95.7067,48.1383 97.54,48.1383 99.5,47.5 Z"/></g>
<g><path style="opacity:1" fill="#cbbc94" d="M 103.5,53.5 C 103.753,50.0443 105.42,48.2109 108.5,48C 109.652,51.2165 108.652,53.7165 105.5,55.5C 104.818,54.7573 104.151,54.0906 103.5,53.5 Z"/></g>
<g><path style="opacity:1" fill="#848172" d="M 80.5,49.5 C 80.5,51.1667 80.5,52.8333 80.5,54.5C 79.2976,53.5946 77.9643,53.5946 76.5,54.5C 75.1667,53.1667 75.1667,51.8333 76.5,50.5C 76.3691,51.3764 76.7025,52.0431 77.5,52.5C 78.2876,51.2299 79.2876,50.2299 80.5,49.5 Z"/></g>
<g><path style="opacity:1" fill="#ece0ae" d="M 82.5,47.5 C 82.5,48.5 82.5,49.5 82.5,50.5C 81.8333,51.8333 81.1667,53.1667 80.5,54.5C 80.5,52.8333 80.5,51.1667 80.5,49.5C 80.8333,48.5 81.5,47.8333 82.5,47.5 Z"/></g>
<g><path style="opacity:1" fill="#c5bc9b" d="M 112.5,49.5 C 111.85,51.4352 111.517,53.4352 111.5,55.5C 110.624,55.6309 109.957,55.2975 109.5,54.5C 110.189,52.556 110.689,50.556 111,48.5C 111.383,49.056 111.883,49.3893 112.5,49.5 Z"/></g>
<g><path style="opacity:1" fill="#525153" d="M 75.5,55.5 C 74.6167,60.1031 74.2834,64.7697 74.5,69.5C 72.1667,69.5 69.8333,69.5 67.5,69.5C 68.804,63.734 68.804,58.0673 67.5,52.5C 71.5931,43.0812 72.2598,43.4146 69.5,53.5C 69.8333,53.8333 70.1667,54.1667 70.5,54.5C 71.5551,50.7219 73.3884,47.3886 76,44.5C 75.4253,46.8778 74.9253,49.3778 74.5,52C 74.5143,53.3847 74.8476,54.5514 75.5,55.5 Z"/></g>
<g><path style="opacity:1" fill="#363538" d="M 60.5,38.5 C 61.8333,38.5 63.1667,38.5 64.5,38.5C 65.8333,38.5 67.1667,38.5 68.5,38.5C 68.5,39.8333 68.5,41.1667 68.5,42.5C 67.209,42.2627 66.209,42.596 65.5,43.5C 63.8985,44.5188 62.8985,46.0188 62.5,48C 62.7483,49.7491 63.7483,50.5824 65.5,50.5C 65.5,51.1667 65.5,51.8333 65.5,52.5C 65.7373,56.2887 66.4039,56.2887 67.5,52.5C 68.804,58.0673 68.804,63.734 67.5,69.5C 65.901,69.2322 64.5676,69.5655 63.5,70.5C 62.5084,70.3284 61.8417,70.6618 61.5,71.5C 60.5054,60.6794 60.1721,49.6794 60.5,38.5 Z"/></g>
<g><path style="opacity:1" fill="#584e39" d="M 82.5,57.5 C 83.1894,58.7736 84.0228,58.7736 85,57.5C 87.7743,59.8733 87.9409,62.2066 85.5,64.5C 84.1451,63.8118 83.1451,62.8118 82.5,61.5C 81.7222,60.8444 81.0556,60.0111 80.5,59C 80.8361,57.9701 81.5028,57.4701 82.5,57.5 Z"/></g>
<g><path style="opacity:1" fill="#848485" d="M 110.5,60.5 C 111.5,60.5 112.5,60.5 113.5,60.5C 113.657,61.8734 113.49,63.2068 113,64.5C 111.701,64.0338 110.201,64.0338 108.5,64.5C 107.238,61.9292 105.905,61.9292 104.5,64.5C 103.583,63.8728 102.583,63.5394 101.5,63.5C 101.5,62.1667 101.5,60.8333 101.5,59.5C 104.609,59.2641 107.609,59.5975 110.5,60.5 Z"/></g>
<g><path style="opacity:1" fill="#3f3f40" d="M 82.5,50.5 C 82.1501,53.0408 82.1501,55.3742 82.5,57.5C 81.5028,57.4701 80.8361,57.9701 80.5,59C 81.0556,60.0111 81.7222,60.8444 82.5,61.5C 80.6122,63.9878 79.9455,66.9878 80.5,70.5C 78.5,70.1667 76.5,69.8333 74.5,69.5C 74.2834,64.7697 74.6167,60.1031 75.5,55.5C 76.1667,55.5 76.5,55.1667 76.5,54.5C 77.9643,53.5946 79.2976,53.5946 80.5,54.5C 81.1667,53.1667 81.8333,51.8333 82.5,50.5 Z"/></g>
<g><path style="opacity:1" fill="#8f8e90" d="M 97.5,60.5 C 98.5,60.5 99.5,60.5 100.5,60.5C 100.5,61.5 100.5,62.5 100.5,63.5C 99.603,62.4019 98.7697,62.4019 98,63.5C 97.5172,62.552 97.3505,61.552 97.5,60.5 Z"/></g>
<g><path style="opacity:1" fill="#585655" d="M 108.5,64.5 C 108.5,67.5 108.5,70.5 108.5,73.5C 111.167,73.5 113.833,73.5 116.5,73.5C 115.791,74.404 114.791,74.7373 113.5,74.5C 109.629,74.815 105.962,74.4816 102.5,73.5C 103.139,72.9032 103.472,72.0698 103.5,71C 102.678,68.5284 102.011,66.0284 101.5,63.5C 102.583,63.5394 103.583,63.8728 104.5,64.5C 105.905,61.9292 107.238,61.9292 108.5,64.5 Z"/></g>
<g><path style="opacity:1" fill="#100e0b" d="M 97.5,36.5 C 97.8333,36.5 98.1667,36.5 98.5,36.5C 99.4227,40.0641 99.756,43.7307 99.5,47.5C 97.54,48.1383 95.7067,48.1383 94,47.5C 93.4818,50.0226 92.1485,52.0226 90,53.5C 91.4628,50.4137 90.6295,48.0803 87.5,46.5C 85.6698,48.1581 84.3364,50.1581 83.5,52.5C 83.4528,54.0004 84.1195,55.0004 85.5,55.5C 87.7094,54.8938 89.876,54.2272 92,53.5C 92.3333,53.8333 92.6667,54.1667 93,54.5C 94.5737,53.0158 95.907,51.3492 97,49.5C 96.6948,51.4432 96.6948,53.4432 97,55.5C 97.7485,53.6675 98.7485,52.0009 100,50.5C 100.49,51.7932 100.657,53.1266 100.5,54.5C 100.5,56.1667 100.5,57.8333 100.5,59.5C 99.209,59.2627 98.209,59.596 97.5,60.5C 97.3505,61.552 97.5172,62.552 98,63.5C 98.7697,62.4019 99.603,62.4019 100.5,63.5C 100.833,63.5 101.167,63.5 101.5,63.5C 102.011,66.0284 102.678,68.5284 103.5,71C 103.472,72.0698 103.139,72.9032 102.5,73.5C 95.3561,73.253 88.3561,72.253 81.5,70.5C 81.1667,70.5 80.8333,70.5 80.5,70.5C 79.9455,66.9878 80.6122,63.9878 82.5,61.5C 83.1451,62.8118 84.1451,63.8118 85.5,64.5C 87.9409,62.2066 87.7743,59.8733 85,57.5C 84.0228,58.7736 83.1894,58.7736 82.5,57.5C 82.1501,55.3742 82.1501,53.0408 82.5,50.5C 82.5,49.5 82.5,48.5 82.5,47.5C 82.5,46.8333 82.5,46.1667 82.5,45.5C 84.3818,44.779 84.7152,43.779 83.5,42.5C 82.5489,41.0813 82.2155,39.4147 82.5,37.5C 84.3972,36.1952 86.7305,35.5286 89.5,35.5C 92.2529,35.5511 94.9195,35.8844 97.5,36.5 Z"/></g>
<g><path style="opacity:1" fill="#8b898b" d="M 88.5,60.5 C 89.2506,59.4265 90.2506,59.2599 91.5,60C 90.8095,61.0674 90.3095,62.2341 90,63.5C 89.7679,62.2625 89.2679,61.2625 88.5,60.5 Z"/></g>
<g><path style="opacity:1" fill="#747374" d="M 92.5,59.5 C 95.179,59.5246 96.5123,60.858 96.5,63.5C 95.1667,63.5 93.8333,63.5 92.5,63.5C 92.5,62.1667 92.5,60.8333 92.5,59.5 Z"/></g>
<g><path style="opacity:1" fill="#392f22" d="M 86.5,48.5 C 88.6196,49.85 88.453,51.5167 86,53.5C 85.6155,51.8034 85.7822,50.1368 86.5,48.5 Z"/></g>
<g><path style="opacity:1" fill="#3a3a3c" d="M 118.5,38.5 C 118.667,49.8382 118.5,61.1716 118,72.5C 117.617,73.056 117.117,73.3893 116.5,73.5C 113.833,73.5 111.167,73.5 108.5,73.5C 108.5,70.5 108.5,67.5 108.5,64.5C 110.201,64.0338 111.701,64.0338 113,64.5C 113.49,63.2068 113.657,61.8734 113.5,60.5C 112.5,60.5 111.5,60.5 110.5,60.5C 110.366,58.7085 110.699,57.0418 111.5,55.5C 111.517,53.4352 111.85,51.4352 112.5,49.5C 113.675,49.719 114.675,49.3857 115.5,48.5C 113.988,47.1375 112.488,46.8042 111,47.5C 110.502,44.5184 110.335,41.5184 110.5,38.5C 113.167,38.5 115.833,38.5 118.5,38.5 Z"/></g>
<g><path style="opacity:1" fill="#e1d1a3" d="M 63.5,70.5 C 64.5676,69.5655 65.901,69.2322 67.5,69.5C 69.8333,69.5 72.1667,69.5 74.5,69.5C 76.5,69.8333 78.5,70.1667 80.5,70.5C 80.8333,70.5 81.1667,70.5 81.5,70.5C 81.5,71.1667 81.5,71.8333 81.5,72.5C 75.5796,71.1832 69.5796,70.5166 63.5,70.5 Z"/></g>
<g><path style="opacity:1" fill="#d966b5" d="M 59.5,38.5 C 59.1678,49.8529 59.5012,61.1862 60.5,72.5C 61.1067,72.3764 61.44,72.0431 61.5,71.5C 64.8984,71.1796 68.2317,71.513 71.5,72.5C 71.3501,74.9655 71.0168,77.6322 70.5,80.5C 68.955,81.2297 68.1216,82.563 68,84.5C 67.7508,83.376 67.2508,82.376 66.5,81.5C 66.1667,81.6667 65.8333,81.8333 65.5,82C 66.3802,83.3561 66.7135,84.8561 66.5,86.5C 68.7339,90.9607 69.0672,95.6274 67.5,100.5C 66.7091,104.197 64.3758,106.03 60.5,106C 59.6667,106.833 58.8333,107.667 58,108.5C 57.5,85.5024 57.3334,62.5024 57.5,39.5C 57.8417,38.6618 58.5084,38.3284 59.5,38.5 Z"/></g>
<g><path style="opacity:1" fill="#dab771" d="M 81.5,70.5 C 88.3561,72.253 95.3561,73.253 102.5,73.5C 105.962,74.4816 109.629,74.815 113.5,74.5C 112.791,75.404 111.791,75.7373 110.5,75.5C 100.69,75.7169 91.0231,74.7169 81.5,72.5C 81.5,71.8333 81.5,71.1667 81.5,70.5 Z"/></g>
<g><path style="opacity:1" fill="#e9bbd9" d="M 70.5,80.5 C 72.8568,80.3367 75.1902,80.5034 77.5,81C 75.9007,82.7863 75.0674,84.953 75,87.5C 73.8944,81.0436 72.5611,81.0436 71,87.5C 70.6667,85.8333 70.3333,84.1667 70,82.5C 69.5291,84.2464 68.8624,85.913 68,87.5C 67.6174,86.944 67.1174,86.6107 66.5,86.5C 66.7135,84.8561 66.3802,83.3561 65.5,82C 65.8333,81.8333 66.1667,81.6667 66.5,81.5C 67.2508,82.376 67.7508,83.376 68,84.5C 68.1216,82.563 68.955,81.2297 70.5,80.5 Z"/></g>
<g><path style="opacity:1" fill="#eac4dc" d="M 113.5,86.5 C 113.5,86.8333 113.5,87.1667 113.5,87.5C 112.153,86.8288 110.986,86.8288 110,87.5C 109.333,85.5 109.333,83.5 110,81.5C 110.667,82.8333 111.333,82.8333 112,81.5C 112.492,82.549 112.326,83.549 111.5,84.5C 111.855,85.5223 112.522,86.189 113.5,86.5 Z"/></g>
<g><path style="opacity:1" fill="#da7cb8" d="M 61.5,71.5 C 61.8417,70.6618 62.5084,70.3284 63.5,70.5C 69.5796,70.5166 75.5796,71.1832 81.5,72.5C 91.0231,74.7169 100.69,75.7169 110.5,75.5C 112.262,78.8098 113.262,82.4764 113.5,86.5C 112.522,86.189 111.855,85.5223 111.5,84.5C 112.326,83.549 112.492,82.549 112,81.5C 111.333,82.8333 110.667,82.8333 110,81.5C 109.333,83.5 109.333,85.5 110,87.5C 110.986,86.8288 112.153,86.8288 113.5,87.5C 112.791,88.404 111.791,88.7373 110.5,88.5C 110.659,94.3523 110.992,100.019 111.5,105.5C 102.973,101.926 94.3067,101.592 85.5,104.5C 81.8815,103.756 78.2148,103.423 74.5,103.5C 72.8243,101.166 70.491,100.166 67.5,100.5C 69.0672,95.6274 68.7339,90.9607 66.5,86.5C 67.1174,86.6107 67.6174,86.944 68,87.5C 68.8624,85.913 69.5291,84.2464 70,82.5C 70.3333,84.1667 70.6667,85.8333 71,87.5C 72.5611,81.0436 73.8944,81.0436 75,87.5C 75.0674,84.953 75.9007,82.7863 77.5,81C 75.1902,80.5034 72.8568,80.3367 70.5,80.5C 71.0168,77.6322 71.3501,74.9655 71.5,72.5C 68.2317,71.513 64.8984,71.1796 61.5,71.5 Z"/></g>
<g><path style="opacity:1" fill="#edd2e3" d="M 104.5,81.5 C 105.458,81.9528 106.292,82.6195 107,83.5C 107.333,82.8333 107.667,82.1667 108,81.5C 108.667,83.5 108.667,85.5 108,87.5C 106.611,83.7279 105.611,83.7279 105,87.5C 104.505,85.5273 104.338,83.5273 104.5,81.5 Z"/></g>
<g><path style="opacity:1" fill="#e4bfd7" d="M 95.5,80.5 C 100.303,80.0901 101.303,81.5901 98.5,85C 100.905,86.6146 100.905,87.2812 98.5,87C 97.2577,83.6433 96.4244,83.81 96,87.5C 95.5034,85.1902 95.3367,82.8568 95.5,80.5 Z"/></g>
<g><path style="opacity:1" fill="#e4bcd7" d="M 79.5,80.5 C 84.3335,86.2442 83.3335,88.4109 76.5,87C 77.4059,84.7787 78.4059,82.6121 79.5,80.5 Z"/></g>
<g><path style="opacity:1" fill="#d871b0" d="M 118.5,38.5 C 119.959,38.4326 121.292,38.7659 122.5,39.5C 122.805,56.5472 122.472,73.5472 121.5,90.5C 118.248,95.3343 115.248,100.334 112.5,105.5C 112.167,105.5 111.833,105.5 111.5,105.5C 110.992,100.019 110.659,94.3523 110.5,88.5C 111.791,88.7373 112.791,88.404 113.5,87.5C 113.5,87.1667 113.5,86.8333 113.5,86.5C 113.262,82.4764 112.262,78.8098 110.5,75.5C 111.791,75.7373 112.791,75.404 113.5,74.5C 114.791,74.7373 115.791,74.404 116.5,73.5C 117.117,73.3893 117.617,73.056 118,72.5C 118.5,61.1716 118.667,49.8382 118.5,38.5 Z"/></g>
<g><path style="opacity:1" fill="#e5b8d4" d="M 88.5,80.5 C 94.0159,80.4734 95.3492,82.64 92.5,87C 91.2068,87.49 89.8734,87.6567 88.5,87.5C 88.5,85.1667 88.5,82.8333 88.5,80.5 Z"/></g>
<g><path style="opacity:1" fill="#dfa2c9" d="M 83.5,80.5 C 84.4614,82.2646 84.7947,84.2646 84.5,86.5C 85.5,86.5 86.5,86.5 87.5,86.5C 86.9475,88.9393 86.9475,91.2727 87.5,93.5C 85.9547,94.4519 84.288,94.7852 82.5,94.5C 82.2289,92.1789 82.8955,90.1789 84.5,88.5C 83.6072,85.9159 83.2739,83.2492 83.5,80.5 Z"/></g>
<g><path style="opacity:1" fill="#ead9e7" d="M 76.5,91.5 C 78.1667,91.5 79.8333,91.5 81.5,91.5C 81.5875,94.5983 81.0875,94.9316 80,92.5C 79.3333,95.1667 78.6667,95.1667 78,92.5C 76.9125,94.9316 76.4125,94.5983 76.5,91.5 Z"/></g>
<g><path style="opacity:1" fill="#e5c2d9" d="M 88.5,89.5 C 89.552,89.3505 90.552,89.5172 91.5,90C 91.3601,91.2639 91.3601,92.4305 91.5,93.5C 93.2262,91.9702 95.2262,90.9702 97.5,90.5C 98.2508,91.376 98.7508,92.376 99,93.5C 99.7096,92.0267 100.876,91.3601 102.5,91.5C 102.5,92.5 102.5,93.5 102.5,94.5C 97.8333,94.5 93.1667,94.5 88.5,94.5C 88.5,92.8333 88.5,91.1667 88.5,89.5 Z"/></g>
<g><path style="opacity:1" fill="#fefefe" d="M -0.5,99.5 C 7.83333,144.5 34.5,171.167 79.5,179.5C 52.8333,179.5 26.1667,179.5 -0.5,179.5C -0.5,152.833 -0.5,126.167 -0.5,99.5 Z"/></g>
<g><path style="opacity:1" fill="#f9d1a7" d="M 121.5,90.5 C 120.167,92.1667 120.167,93.8333 121.5,95.5C 121.167,96.1667 120.833,96.8333 120.5,97.5C 119.108,101.949 117.441,106.282 115.5,110.5C 115.167,110.5 114.833,110.5 114.5,110.5C 113.336,110.835 112.003,110.835 110.5,110.5C 111.441,108.95 112.107,107.284 112.5,105.5C 115.248,100.334 118.248,95.3343 121.5,90.5 Z"/></g>
<g><path style="opacity:1" fill="#fefefe" d="M 179.5,99.5 C 179.5,126.167 179.5,152.833 179.5,179.5C 152.833,179.5 126.167,179.5 99.5,179.5C 144.503,171.163 171.17,144.497 179.5,99.5 Z"/></g>
<g><path style="opacity:1" fill="#e5d9d3" d="M 111.5,105.5 C 111.833,105.5 112.167,105.5 112.5,105.5C 112.107,107.284 111.441,108.95 110.5,110.5C 108.5,110.5 106.5,110.5 104.5,110.5C 100.833,109.167 97.1667,109.167 93.5,110.5C 90.437,108.975 87.7703,106.975 85.5,104.5C 94.3067,101.592 102.973,101.926 111.5,105.5 Z"/></g>
<g><path style="opacity:1" fill="#5b4b3d" d="M 94.5,112.5 C 95.5,112.833 96.1667,113.5 96.5,114.5C 93.9969,115.763 91.6636,115.263 89.5,113C 91.1341,112.506 92.8008,112.34 94.5,112.5 Z"/></g>
<g><path style="opacity:1" fill="#97847b" d="M 74.5,104.5 C 74.5,104.167 74.5,103.833 74.5,103.5C 78.2148,103.423 81.8815,103.756 85.5,104.5C 87.7703,106.975 90.437,108.975 93.5,110.5C 93.8333,111.167 94.1667,111.833 94.5,112.5C 92.8008,112.34 91.1341,112.506 89.5,113C 91.6636,115.263 93.9969,115.763 96.5,114.5C 96.8333,114.5 97.1667,114.5 97.5,114.5C 97.7678,116.099 97.4345,117.432 96.5,118.5C 95.0028,117.694 93.3361,117.028 91.5,116.5C 91.1667,117.833 90.8333,119.167 90.5,120.5C 88.9255,121.631 87.2588,121.798 85.5,121C 85.2549,119.089 85.2549,117.089 85.5,115C 84.1667,114.667 82.8333,114.333 81.5,114C 81.9889,112.448 81.3223,111.281 79.5,110.5C 78.6868,109.347 77.6868,109.347 76.5,110.5C 75.8313,108.369 75.1646,106.369 74.5,104.5 Z"/></g>
<g><path style="opacity:1" fill="#d23e32" d="M 97.5,114.5 C 98.7079,115.234 100.041,115.567 101.5,115.5C 102.109,118.878 100.776,120.878 97.5,121.5C 96.5084,121.672 95.8417,121.338 95.5,120.5C 95.8333,119.833 96.1667,119.167 96.5,118.5C 97.4345,117.432 97.7678,116.099 97.5,114.5 Z"/></g>
<g><path style="opacity:1" fill="#d690ba" d="M 121.5,95.5 C 122.833,109.5 122.833,123.5 121.5,137.5C 121.829,123.99 121.496,110.656 120.5,97.5C 120.833,96.8333 121.167,96.1667 121.5,95.5 Z"/></g>
<g><path style="opacity:1" fill="#b9a8a2" d="M 79.5,110.5 C 81.3223,111.281 81.9889,112.448 81.5,114C 82.8333,114.333 84.1667,114.667 85.5,115C 85.2549,117.089 85.2549,119.089 85.5,121C 87.2588,121.798 88.9255,121.631 90.5,120.5C 90.8333,119.167 91.1667,117.833 91.5,116.5C 93.3361,117.028 95.0028,117.694 96.5,118.5C 96.1667,119.167 95.8333,119.833 95.5,120.5C 92.5985,123.312 89.9319,126.312 87.5,129.5C 87.33,128.178 87.6634,127.011 88.5,126C 87.5,125.667 86.5,125.333 85.5,125C 85.0698,124.08 84.7365,123.247 84.5,122.5C 82.0642,123.891 81.3975,123.391 82.5,121C 80.1088,120.309 80.1088,119.309 82.5,118C 81.552,117.517 80.552,117.351 79.5,117.5C 79.7035,115.61 79.0368,114.11 77.5,113C 78.756,112.583 79.4226,111.75 79.5,110.5 Z"/></g>
<g><path style="opacity:1" fill="#eda467" d="M 104.5,110.5 C 101.971,113.138 102.637,115.138 106.5,116.5C 109.833,115.833 111.167,113.833 110.5,110.5C 112.003,110.835 113.336,110.835 114.5,110.5C 113.167,113.5 113.167,116.5 114.5,119.5C 112.933,120.681 112.099,122.347 112,124.5C 108.21,121.442 104.043,120.775 99.5,122.5C 98.5084,122.672 97.8417,122.338 97.5,121.5C 100.776,120.878 102.109,118.878 101.5,115.5C 100.041,115.567 98.7079,115.234 97.5,114.5C 97.1667,114.5 96.8333,114.5 96.5,114.5C 96.1667,113.5 95.5,112.833 94.5,112.5C 94.1667,111.833 93.8333,111.167 93.5,110.5C 97.1667,109.167 100.833,109.167 104.5,110.5 Z"/></g>
<g><path style="opacity:1" fill="#f5c8a5" d="M 104.5,110.5 C 106.5,110.5 108.5,110.5 110.5,110.5C 111.167,113.833 109.833,115.833 106.5,116.5C 102.637,115.138 101.971,113.138 104.5,110.5 Z"/></g>
<g><path style="opacity:1" fill="#944d25" d="M 95.5,120.5 C 95.8417,121.338 96.5084,121.672 97.5,121.5C 97.8417,122.338 98.5084,122.672 99.5,122.5C 97.2615,123.542 95.0948,124.875 93,126.5C 92.5494,129.778 91.0494,132.444 88.5,134.5C 86.9731,134.573 85.9731,133.906 85.5,132.5C 86.1667,131.5 86.8333,130.5 87.5,129.5C 89.9319,126.312 92.5985,123.312 95.5,120.5 Z"/></g>
<g><path style="opacity:1" fill="#d3c9c7" d="M 74.5,104.5 C 75.1646,106.369 75.8313,108.369 76.5,110.5C 77.6868,109.347 78.6868,109.347 79.5,110.5C 79.4226,111.75 78.756,112.583 77.5,113C 79.0368,114.11 79.7035,115.61 79.5,117.5C 80.552,117.351 81.552,117.517 82.5,118C 80.1088,119.309 80.1088,120.309 82.5,121C 81.3975,123.391 82.0642,123.891 84.5,122.5C 84.7365,123.247 85.0698,124.08 85.5,125C 86.5,125.333 87.5,125.667 88.5,126C 87.6634,127.011 87.33,128.178 87.5,129.5C 86.8333,130.5 86.1667,131.5 85.5,132.5C 83.9505,133.441 82.2838,134.107 80.5,134.5C 79.1667,135.167 77.8333,135.833 76.5,136.5C 76.7373,135.209 76.404,134.209 75.5,133.5C 74.7777,132.449 73.7777,131.782 72.5,131.5C 72.7733,129.549 72.1066,128.049 70.5,127C 71.624,126.751 72.624,126.251 73.5,125.5C 72.1468,124.476 71.4802,123.143 71.5,121.5C 70.2049,120.311 68.2049,119.478 65.5,119C 67.1826,116.79 69.1826,116.29 71.5,117.5C 72.3857,116.675 72.719,115.675 72.5,114.5C 71.5,114.5 70.5,114.5 69.5,114.5C 68.8307,110.324 70.3307,108.991 74,110.5C 74.4955,108.527 74.6621,106.527 74.5,104.5 Z"/></g>
<g><path style="opacity:1" fill="#dd7f42" d="M 114.5,119.5 C 113.905,122.346 113.905,125.346 114.5,128.5C 113.5,127.833 112.5,127.167 111.5,126.5C 109.97,125.933 108.47,125.267 107,124.5C 105.129,126.303 102.962,127.636 100.5,128.5C 99.945,134.68 97.1117,136.014 92,132.5C 91.1841,133.823 90.0174,134.489 88.5,134.5C 91.0494,132.444 92.5494,129.778 93,126.5C 95.0948,124.875 97.2615,123.542 99.5,122.5C 104.043,120.775 108.21,121.442 112,124.5C 112.099,122.347 112.933,120.681 114.5,119.5 Z"/></g>
<g><path style="opacity:1" fill="#e99b66" d="M 111.5,126.5 C 109.812,128.477 109.479,130.477 110.5,132.5C 110.047,133.458 109.381,134.292 108.5,135C 105.996,135.698 103.663,136.531 101.5,137.5C 97.4402,137.515 93.4402,137.015 89.5,136C 88.944,135.617 88.6107,135.117 88.5,134.5C 90.0174,134.489 91.1841,133.823 92,132.5C 97.1117,136.014 99.945,134.68 100.5,128.5C 102.962,127.636 105.129,126.303 107,124.5C 108.47,125.267 109.97,125.933 111.5,126.5 Z"/></g>
<g><path style="opacity:1" fill="#eddeda" d="M 114.5,110.5 C 114.833,110.5 115.167,110.5 115.5,110.5C 119.861,119.957 118.861,128.957 112.5,137.5C 108.833,137.5 105.167,137.5 101.5,137.5C 103.663,136.531 105.996,135.698 108.5,135C 109.381,134.292 110.047,133.458 110.5,132.5C 113.871,133.805 115.204,132.471 114.5,128.5C 113.905,125.346 113.905,122.346 114.5,119.5C 113.167,116.5 113.167,113.5 114.5,110.5 Z"/></g>
<g><path style="opacity:1" fill="#e6d9dc" d="M 56.5,39.5 C 56.8333,39.5 57.1667,39.5 57.5,39.5C 57.3334,62.5024 57.5,85.5024 58,108.5C 58.8333,107.667 59.6667,106.833 60.5,106C 64.3758,106.03 66.7091,104.197 67.5,100.5C 70.491,100.166 72.8243,101.166 74.5,103.5C 74.5,103.833 74.5,104.167 74.5,104.5C 74.6621,106.527 74.4955,108.527 74,110.5C 70.3307,108.991 68.8307,110.324 69.5,114.5C 70.5,114.5 71.5,114.5 72.5,114.5C 72.719,115.675 72.3857,116.675 71.5,117.5C 69.1826,116.29 67.1826,116.79 65.5,119C 68.2049,119.478 70.2049,120.311 71.5,121.5C 71.4802,123.143 72.1468,124.476 73.5,125.5C 72.624,126.251 71.624,126.751 70.5,127C 72.1066,128.049 72.7733,129.549 72.5,131.5C 70.3862,132.784 69.3862,134.784 69.5,137.5C 65.2984,137.183 61.2984,137.517 57.5,138.5C 56.7418,105.755 56.4085,72.7548 56.5,39.5 Z"/></g>
<g><path style="opacity:1" fill="#a7bb42" d="M 111.5,126.5 C 112.5,127.167 113.5,127.833 114.5,128.5C 115.204,132.471 113.871,133.805 110.5,132.5C 109.479,130.477 109.812,128.477 111.5,126.5 Z"/></g>
<g><path style="opacity:1" fill="#d768ad" d="M 120.5,97.5 C 121.496,110.656 121.829,123.99 121.5,137.5C 118.5,137.5 115.5,137.5 112.5,137.5C 118.861,128.957 119.861,119.957 115.5,110.5C 117.441,106.282 119.108,101.949 120.5,97.5 Z"/></g>
<g><path style="opacity:1" fill="#b4b1ab" d="M 85.5,132.5 C 85.9731,133.906 86.9731,134.573 88.5,134.5C 88.6107,135.117 88.944,135.617 89.5,136C 93.4402,137.015 97.4402,137.515 101.5,137.5C 105.167,137.5 108.833,137.5 112.5,137.5C 115.5,137.5 118.5,137.5 121.5,137.5C 120.659,139.379 120.325,141.379 120.5,143.5C 112.517,144.166 104.517,144.499 96.5,144.5C 95.5084,144.672 94.8417,144.338 94.5,143.5C 94.8333,143.5 95.1667,143.5 95.5,143.5C 96.9311,142.918 98.2644,142.085 99.5,141C 91.4858,140.61 83.4858,140.11 75.5,139.5C 75.5,137.5 75.5,135.5 75.5,133.5C 76.404,134.209 76.7373,135.209 76.5,136.5C 77.1522,137.725 78.3189,138.392 80,138.5C 81.1667,138.167 82.3333,137.833 83.5,137.5C 82.2299,136.712 81.2299,135.712 80.5,134.5C 82.2838,134.107 83.9505,133.441 85.5,132.5 Z"/></g>
<g><path style="opacity:1" fill="#c185a6" d="M 80.5,134.5 C 81.2299,135.712 82.2299,136.712 83.5,137.5C 82.3333,137.833 81.1667,138.167 80,138.5C 78.3189,138.392 77.1522,137.725 76.5,136.5C 77.8333,135.833 79.1667,135.167 80.5,134.5 Z"/></g>
<g><path style="opacity:1" fill="#a09d94" d="M 72.5,131.5 C 73.7777,131.782 74.7777,132.449 75.5,133.5C 75.5,135.5 75.5,137.5 75.5,139.5C 83.4858,140.11 91.4858,140.61 99.5,141C 98.2644,142.085 96.9311,142.918 95.5,143.5C 95.6107,142.883 95.944,142.383 96.5,142C 94.1667,141.833 91.8333,141.667 89.5,141.5C 86.7305,141.529 84.3972,142.195 82.5,143.5C 74.2584,146.156 65.9251,146.156 57.5,143.5C 57.5,141.833 57.5,140.167 57.5,138.5C 61.2984,137.517 65.2984,137.183 69.5,137.5C 69.3862,134.784 70.3862,132.784 72.5,131.5 Z"/></g>
<g><path style="opacity:1" fill="#d0d5d4" d="M 65.5,141.5 C 71.0214,141.054 76.3548,141.554 81.5,143C 78.8333,143.167 76.1667,143.333 73.5,143.5C 70.4098,143.478 67.7432,142.812 65.5,141.5 Z"/></g>
<g><path style="opacity:1" fill="#41413e" d="M 95.5,143.5 C 95.1667,143.5 94.8333,143.5 94.5,143.5C 90.5,143.5 86.5,143.5 82.5,143.5C 84.3972,142.195 86.7305,141.529 89.5,141.5C 91.8333,141.667 94.1667,141.833 96.5,142C 95.944,142.383 95.6107,142.883 95.5,143.5 Z"/></g>
<g><path style="opacity:1" fill="#888268" d="M 120.5,143.5 C 121.404,144.209 121.737,145.209 121.5,146.5C 113.833,146.5 106.167,146.5 98.5,146.5C 97.8333,145.833 97.1667,145.167 96.5,144.5C 104.517,144.499 112.517,144.166 120.5,143.5 Z"/></g>
<g><path style="opacity:1" fill="#6c654e" d="M 57.5,143.5 C 65.9251,146.156 74.2584,146.156 82.5,143.5C 86.5,143.5 90.5,143.5 94.5,143.5C 94.8417,144.338 95.5084,144.672 96.5,144.5C 97.1667,145.167 97.8333,145.833 98.5,146.5C 84.8333,146.5 71.1667,146.5 57.5,146.5C 57.5,145.5 57.5,144.5 57.5,143.5 Z"/></g>
</svg>
