<svg width="60" height="60" viewBox="0 0 60 60" fill="none" xmlns="http://www.w3.org/2000/svg">
    <rect width="60" height="60" rx="30" fill="#F4F4F4" />
    <path fill-rule="evenodd" clip-rule="evenodd"
        d="M19.6662 15.7585C19.6662 14.8434 20.408 14.1016 21.3231 14.1016H38.7871C39.7022 14.1016 40.444 14.8434 40.444 15.7585V18.8238H40.6121H45.1842C45.6967 18.8238 46.1121 19.2393 46.1121 19.7517V23.5461C46.1121 27.1844 43.8261 30.2889 40.6121 31.5015C40.2228 31.6484 39.8198 31.7675 39.4057 31.8565C38.1473 34.4475 35.8438 36.4369 33.0432 37.2765V40.3898H34.7218C35.2741 40.3898 35.7218 40.8376 35.7218 41.3898V42.6898C35.7218 42.9289 35.638 43.1483 35.4981 43.3203H37.5547C38.107 43.3203 38.5547 43.768 38.5547 44.3203V47.3203C38.5547 47.8726 38.107 48.3203 37.5547 48.3203H22.5547C22.0024 48.3203 21.5547 47.8726 21.5547 47.3203V44.3203C21.5547 43.768 22.0024 43.3203 22.5547 43.3203H24.6122C24.4723 43.1483 24.3885 42.9289 24.3885 42.6898V41.3898C24.3885 40.8376 24.8362 40.3898 25.3885 40.3898H27.0654V37.2761C24.2654 36.4361 21.9624 34.4468 20.7043 31.856C20.2909 31.7671 19.8887 31.6481 19.5 31.5015C16.286 30.2889 14 27.1844 14 23.5461V19.7517C14 19.2393 14.4154 18.8238 14.9279 18.8238H19.5H19.6662V15.7585ZM17 21.8238H19.5V28.0322V28.1566C17.9949 27.1752 17 25.4768 17 23.5461V21.8238ZM43.1121 21.8238H40.6121V28.0322V28.1566C42.1172 27.1752 43.1121 25.4768 43.1121 23.5461V21.8238Z"
        fill="#FFDB20" />
    <mask id="mask0_15213_258019" style="mask-type:alpha" maskUnits="userSpaceOnUse" x="14" y="14" width="33"
        height="35">
        <path fill-rule="evenodd" clip-rule="evenodd"
            d="M19.6662 15.7585C19.6662 14.8434 20.408 14.1016 21.3231 14.1016H38.7871C39.7022 14.1016 40.444 14.8434 40.444 15.7585V18.8238H40.6121H45.1842C45.6967 18.8238 46.1121 19.2393 46.1121 19.7517V23.5461C46.1121 27.1844 43.8261 30.2889 40.6121 31.5015C40.2228 31.6484 39.8198 31.7675 39.4057 31.8565C38.1473 34.4475 35.8438 36.4369 33.0432 37.2765V40.3898H34.7218C35.2741 40.3898 35.7218 40.8376 35.7218 41.3898V42.3787C35.7218 42.8125 35.4456 43.1818 35.0594 43.3203H37.5547C38.107 43.3203 38.5547 43.768 38.5547 44.3203V47.3203C38.5547 47.8726 38.107 48.3203 37.5547 48.3203H22.5547C22.0024 48.3203 21.5547 47.8726 21.5547 47.3203V44.3203C21.5547 43.768 22.0024 43.3203 22.5547 43.3203H25.0509C24.6647 43.1818 24.3885 42.8125 24.3885 42.3787V41.3898C24.3885 40.8376 24.8362 40.3898 25.3885 40.3898H27.0654V37.2761C24.2654 36.4361 21.9624 34.4468 20.7043 31.856C20.2909 31.7671 19.8887 31.6481 19.5 31.5015C16.286 30.2889 14 27.1844 14 23.5461V19.7517C14 19.2393 14.4154 18.8238 14.9279 18.8238H19.5H19.6662V15.7585ZM17 21.8238H19.5V28.0322V28.1566C17.9949 27.1752 17 25.4768 17 23.5461V21.8238ZM43.1121 21.8238H40.6121V28.0322V28.1566C42.1172 27.1752 43.1121 25.4768 43.1121 23.5461V21.8238Z"
            fill="#FFDB20" />
    </mask>
    <g mask="url(#mask0_15213_258019)">
        <rect x="13.0586" y="13.1003" width="34" height="31" fill="url(#paint0_linear_15213_258019)" />
        <rect x="20.0586" y="43.3503" width="20" height="6" fill="url(#paint1_linear_15213_258019)" />
    </g>
    <path
        d="M29.4463 19.4286C29.6516 18.9368 30.3484 18.9368 30.5537 19.4286L31.6237 21.9923C31.7127 22.2053 31.9159 22.3484 32.1465 22.3603L35.0147 22.5086C35.5737 22.5374 35.7922 23.2483 35.3459 23.5862L33.1901 25.2179C32.9927 25.3673 32.9074 25.6226 32.9752 25.8607L33.6993 28.4028C33.8482 28.9258 33.2805 29.3613 32.814 29.082L30.3082 27.5816C30.1185 27.468 29.8815 27.468 29.6918 27.5816L27.186 29.082C26.7195 29.3613 26.1518 28.9258 26.3007 28.4028L27.0248 25.8607C27.0926 25.6226 27.0073 25.3673 26.8099 25.2179L24.6541 23.5862C24.2078 23.2483 24.4263 22.5374 24.9853 22.5086L27.8535 22.3603C28.0841 22.3484 28.2873 22.2053 28.3763 21.9923L29.4463 19.4286Z"
        fill="white" />
    <defs>
        <linearGradient id="paint0_linear_15213_258019" x1="20.002" y1="15.1003" x2="38.502" y2="43.1003"
            gradientUnits="userSpaceOnUse">
            <stop offset="0.16375" stop-color="#FFCE20" />
            <stop offset="1" stop-color="#F59300" />
        </linearGradient>
        <linearGradient id="paint1_linear_15213_258019" x1="22.002" y1="43.6003" x2="38.502" y2="49.6003"
            gradientUnits="userSpaceOnUse">
            <stop stop-color="#623F00" />
            <stop offset="1" stop-color="#3E2D0E" />
        </linearGradient>
    </defs>
</svg>