<svg class="MuiSvgIcon-root jss429" focusable="false" viewBox="0 0 24 24" aria-hidden="true" role="img">
    <path fill-rule="evenodd" clip-rule="evenodd"
        d="M12.75 4.13769L12.75 19.4087C12.75 19.7611 12.9645 20.078 13.2917 20.2089C13.6118 20.3369 13.9774 20.2619 14.2212 20.0181L14.4696 19.7696C14.7625 19.4767 15.2374 19.4767 15.5303 19.7696C15.8232 20.0625 15.8232 20.5374 15.5303 20.8303L15.2818 21.0787L14.7515 20.5484L15.2818 21.0787C14.6138 21.7468 13.6118 21.9525 12.7346 21.6016C11.8379 21.2429 11.25 20.3744 11.25 19.4087L11.25 4.13799L4.27167 9.78308C3.94963 10.0436 3.47739 9.99372 3.21688 9.67168C2.95636 9.34965 3.00624 8.8774 3.32828 8.61689L11.214 2.23773C11.6725 1.86683 12.3278 1.86684 12.7863 2.23774L20.6719 8.61689C20.9939 8.87741 21.0438 9.34965 20.7833 9.67169C20.5227 9.99372 20.0505 10.0436 19.7285 9.78308L12.75 4.13769Z"
        fill="rgba(100, 100, 100, 1)"></path>
</svg>