<svg class="MuiSvgIcon-root" focusable="false" viewBox="0 0 24 24" aria-hidden="true" role="img" fill="none">
    <path fill-rule="evenodd" clip-rule="evenodd"
        d="M10.8353 4.4502C7.30892 4.4502 4.4502 7.30892 4.4502 10.8353C4.4502 14.3617 7.30892 17.2205 10.8353 17.2205C11.6199 17.2205 12.3699 17.0793 13.0622 16.8216C13.4504 16.6771 13.8822 16.8747 14.0267 17.2629C14.1712 17.6511 13.9736 18.0829 13.5854 18.2274C12.7282 18.5465 11.8012 18.7205 10.8353 18.7205C6.48049 18.7205 2.9502 15.1902 2.9502 10.8353C2.9502 6.48049 6.48049 2.9502 10.8353 2.9502C15.1902 2.9502 18.7205 6.48049 18.7205 10.8353C18.7205 12.742 18.0428 14.4922 16.9162 15.8555L20.7305 19.6699C21.0234 19.9628 21.0234 20.4376 20.7305 20.7305C20.4376 21.0234 19.9628 21.0234 19.6699 20.7305L15.7039 16.7645C15.207 16.2677 15.2378 15.5034 15.6556 15.0229C16.6308 13.9014 17.2205 12.4382 17.2205 10.8353C17.2205 7.30892 14.3617 4.4502 10.8353 4.4502Z">
    </path>
</svg>