<svg class="MuiSvgIcon-root jss199" focusable="false" viewBox="0 0 28 28" aria-hidden="true" role="img">
    <path fill-rule="evenodd" clip-rule="evenodd"
        d="M4.35976 2.20609C4.75216 2.33875 4.96272 2.76439 4.83006 3.15678L4.77136 3.33043C4.57063 3.92417 4.84064 4.57477 5.40279 4.85191L5.89242 5.0933C6.06435 5.17806 6.25346 5.22214 6.44515 5.22214H20.7627C22.5556 5.22214 23.869 6.91015 23.4284 8.64802L21.9634 14.4258C21.6541 15.6457 20.5562 16.4999 19.2978 16.4999H9.94011C8.72966 16.4999 7.66154 15.7084 7.30919 14.5504L5.88121 9.85712C5.76064 9.46085 5.98414 9.04186 6.38042 8.92129C6.77669 8.80071 7.19568 9.02422 7.31625 9.42049L8.74424 14.1138C8.9044 14.6402 9.3899 14.9999 9.94011 14.9999H19.2978C19.8698 14.9999 20.3688 14.6116 20.5094 14.0571L21.9744 8.27936C22.1747 7.48942 21.5777 6.72214 20.7627 6.72214H6.44515C6.02344 6.72214 5.60739 6.62516 5.22915 6.43869L4.73952 6.1973C3.50278 5.58759 2.90877 4.15627 3.35036 2.85003L3.40907 2.67639C3.54172 2.28399 3.96736 2.07343 4.35976 2.20609ZM8.56779 24.1668C9.67236 24.1668 10.5678 23.2713 10.5678 22.1668C10.5678 21.0622 9.67236 20.1668 8.56779 20.1668C7.46322 20.1668 6.56779 21.0622 6.56779 22.1668C6.56779 23.2713 7.46322 24.1668 8.56779 24.1668ZM8.56779 25.6668C10.5008 25.6668 12.0678 24.0998 12.0678 22.1668C12.0678 20.2338 10.5008 18.6668 8.56779 18.6668C6.63479 18.6668 5.06779 20.2338 5.06779 22.1668C5.06779 24.0998 6.63479 25.6668 8.56779 25.6668ZM22.2345 22.1668C22.2345 23.2713 21.339 24.1668 20.2345 24.1668C19.1299 24.1668 18.2345 23.2713 18.2345 22.1668C18.2345 21.0622 19.1299 20.1668 20.2345 20.1668C21.339 20.1668 22.2345 21.0622 22.2345 22.1668ZM23.7345 22.1668C23.7345 24.0998 22.1675 25.6668 20.2345 25.6668C18.3015 25.6668 16.7345 24.0998 16.7345 22.1668C16.7345 20.2338 18.3015 18.6668 20.2345 18.6668C22.1675 18.6668 23.7345 20.2338 23.7345 22.1668Z">
    </path>
</svg>