<svg class="MuiSvgIcon-root" focusable="false" viewBox="0 0 12 11" aria-hidden="true" role="img">
    <path
        d="M5.57441 0.489549C5.76807 0.17015 6.23193 0.17015 6.42559 0.489549L7.94629 2.99753C8.01559 3.11181 8.12801 3.19341 8.25822 3.22394L11.1157 3.89378C11.4796 3.97909 11.623 4.41981 11.3787 4.70252L9.46109 6.92239C9.37371 7.02354 9.33077 7.15557 9.34195 7.28872L9.58728 10.2107C9.61852 10.5828 9.24325 10.8552 8.89865 10.7105L6.19278 9.57448C6.06948 9.52272 5.93052 9.52272 5.80722 9.57448L3.10135 10.7105C2.75675 10.8552 2.38148 10.5828 2.41272 10.2107L2.65805 7.28872C2.66923 7.15557 2.62629 7.02354 2.53891 6.92239L0.621261 4.70252C0.377043 4.41981 0.520383 3.97909 0.884292 3.89378L3.74178 3.22394C3.87199 3.19341 3.98441 3.11181 4.05371 2.99753L5.57441 0.489549Z"
        fill="rgb(255, 191, 72)"></path>
</svg>